solid ascii
  facet normal 9.396926e-001 0.000000e+000 -3.420201e-001
    outer loop
      vertex   2.275907e+001 -5.664000e+001 2.124582e+001
      vertex   2.275907e+001 -4.964000e+001 2.124582e+001
      vertex   2.311000e+001 -5.664000e+001 2.221000e+001
    endloop
  endfacet
  facet normal 5.000000e-001 0.000000e+000 -8.660254e-001
    outer loop
      vertex   2.275907e+001 -5.664000e+001 2.124582e+001
      vertex   2.187047e+001 -4.964000e+001 2.073279e+001
      vertex   2.275907e+001 -4.964000e+001 2.124582e+001
    endloop
  endfacet
  facet normal 5.000000e-001 0.000000e+000 -8.660254e-001
    outer loop
      vertex   2.275907e+001 -5.664000e+001 2.124582e+001
      vertex   2.187047e+001 -5.664000e+001 2.073279e+001
      vertex   2.187047e+001 -4.964000e+001 2.073279e+001
    endloop
  endfacet
  facet normal -1.736482e-001 -0.000000e+000 -9.848078e-001
    outer loop
      vertex   2.187047e+001 -4.964000e+001 2.073279e+001
      vertex   2.187047e+001 -5.664000e+001 2.073279e+001
      vertex   2.086000e+001 -4.964000e+001 2.091096e+001
    endloop
  endfacet
  facet normal -1.736482e-001 0.000000e+000 -9.848078e-001
    outer loop
      vertex   2.086000e+001 -4.964000e+001 2.091096e+001
      vertex   2.187047e+001 -5.664000e+001 2.073279e+001
      vertex   2.086000e+001 -5.664000e+001 2.091096e+001
    endloop
  endfacet
  facet normal -7.660444e-001 0.000000e+000 -6.427876e-001
    outer loop
      vertex   2.020046e+001 -4.964000e+001 2.169697e+001
      vertex   2.086000e+001 -5.664000e+001 2.091096e+001
      vertex   2.020046e+001 -5.664000e+001 2.169697e+001
    endloop
  endfacet
  facet normal -1.000000e+000 -0.000000e+000 0.000000e+000
    outer loop
      vertex   2.020046e+001 -4.964000e+001 2.272303e+001
      vertex   2.020046e+001 -5.664000e+001 2.169697e+001
      vertex   2.020046e+001 -5.664000e+001 2.272303e+001
    endloop
  endfacet
  facet normal -7.660444e-001 0.000000e+000 6.427876e-001
    outer loop
      vertex   2.086000e+001 -4.964000e+001 2.350904e+001
      vertex   2.020046e+001 -5.664000e+001 2.272303e+001
      vertex   2.086000e+001 -5.664000e+001 2.350904e+001
    endloop
  endfacet
  facet normal -1.736482e-001 0.000000e+000 9.848078e-001
    outer loop
      vertex   2.187047e+001 -4.964000e+001 2.368721e+001
      vertex   2.086000e+001 -5.664000e+001 2.350904e+001
      vertex   2.187047e+001 -5.664000e+001 2.368721e+001
    endloop
  endfacet
  facet normal 5.000000e-001 0.000000e+000 8.660254e-001
    outer loop
      vertex   2.275907e+001 -4.964000e+001 2.317418e+001
      vertex   2.187047e+001 -5.664000e+001 2.368721e+001
      vertex   2.275907e+001 -5.664000e+001 2.317418e+001
    endloop
  endfacet
  facet normal 9.396926e-001 0.000000e+000 3.420201e-001
    outer loop
      vertex   2.311000e+001 -4.964000e+001 2.221000e+001
      vertex   2.275907e+001 -5.664000e+001 2.317418e+001
      vertex   2.311000e+001 -5.664000e+001 2.221000e+001
    endloop
  endfacet
  facet normal 9.396926e-001 0.000000e+000 -3.420201e-001
    outer loop
      vertex   2.275907e+001 -4.964000e+001 2.124582e+001
      vertex   2.311000e+001 -4.964000e+001 2.221000e+001
      vertex   2.311000e+001 -5.664000e+001 2.221000e+001
    endloop
  endfacet
  facet normal -7.660444e-001 -0.000000e+000 -6.427876e-001
    outer loop
      vertex   2.086000e+001 -4.964000e+001 2.091096e+001
      vertex   2.086000e+001 -5.664000e+001 2.091096e+001
      vertex   2.020046e+001 -4.964000e+001 2.169697e+001
    endloop
  endfacet
  facet normal -1.000000e+000 0.000000e+000 0.000000e+000
    outer loop
      vertex   2.020046e+001 -4.964000e+001 2.169697e+001
      vertex   2.020046e+001 -5.664000e+001 2.169697e+001
      vertex   2.020046e+001 -4.964000e+001 2.272303e+001
    endloop
  endfacet
  facet normal -7.660444e-001 0.000000e+000 6.427876e-001
    outer loop
      vertex   2.020046e+001 -4.964000e+001 2.272303e+001
      vertex   2.020046e+001 -5.664000e+001 2.272303e+001
      vertex   2.086000e+001 -4.964000e+001 2.350904e+001
    endloop
  endfacet
  facet normal -1.736482e-001 0.000000e+000 9.848078e-001
    outer loop
      vertex   2.086000e+001 -4.964000e+001 2.350904e+001
      vertex   2.086000e+001 -5.664000e+001 2.350904e+001
      vertex   2.187047e+001 -4.964000e+001 2.368721e+001
    endloop
  endfacet
  facet normal 5.000000e-001 0.000000e+000 8.660254e-001
    outer loop
      vertex   2.187047e+001 -4.964000e+001 2.368721e+001
      vertex   2.187047e+001 -5.664000e+001 2.368721e+001
      vertex   2.275907e+001 -4.964000e+001 2.317418e+001
    endloop
  endfacet
  facet normal 9.396926e-001 0.000000e+000 3.420201e-001
    outer loop
      vertex   2.275907e+001 -4.964000e+001 2.317418e+001
      vertex   2.275907e+001 -5.664000e+001 2.317418e+001
      vertex   2.311000e+001 -4.964000e+001 2.221000e+001
    endloop
  endfacet
  facet normal -0.000000e+000 -1.000000e+000 -0.000000e+000
    outer loop
      vertex   2.311000e+001 -5.664000e+001 2.221000e+001
      vertex   2.275907e+001 -5.664000e+001 2.317418e+001
      vertex   2.275907e+001 -5.664000e+001 2.124582e+001
    endloop
  endfacet
  facet normal -0.000000e+000 -1.000000e+000 0.000000e+000
    outer loop
      vertex   2.275907e+001 -5.664000e+001 2.124582e+001
      vertex   2.275907e+001 -5.664000e+001 2.317418e+001
      vertex   2.187047e+001 -5.664000e+001 2.073279e+001
    endloop
  endfacet
  facet normal 0.000000e+000 -1.000000e+000 0.000000e+000
    outer loop
      vertex   2.187047e+001 -5.664000e+001 2.073279e+001
      vertex   2.275907e+001 -5.664000e+001 2.317418e+001
      vertex   2.187047e+001 -5.664000e+001 2.368721e+001
    endloop
  endfacet
  facet normal -0.000000e+000 -1.000000e+000 0.000000e+000
    outer loop
      vertex   2.086000e+001 -5.664000e+001 2.091096e+001
      vertex   2.187047e+001 -5.664000e+001 2.368721e+001
      vertex   2.086000e+001 -5.664000e+001 2.350904e+001
    endloop
  endfacet
  facet normal -0.000000e+000 -1.000000e+000 0.000000e+000
    outer loop
      vertex   2.020046e+001 -5.664000e+001 2.169697e+001
      vertex   2.086000e+001 -5.664000e+001 2.350904e+001
      vertex   2.020046e+001 -5.664000e+001 2.272303e+001
    endloop
  endfacet
  facet normal 0.000000e+000 -1.000000e+000 0.000000e+000
    outer loop
      vertex   2.020046e+001 -5.664000e+001 2.169697e+001
      vertex   2.086000e+001 -5.664000e+001 2.091096e+001
      vertex   2.086000e+001 -5.664000e+001 2.350904e+001
    endloop
  endfacet
  facet normal -0.000000e+000 -1.000000e+000 0.000000e+000
    outer loop
      vertex   2.187047e+001 -5.664000e+001 2.073279e+001
      vertex   2.187047e+001 -5.664000e+001 2.368721e+001
      vertex   2.086000e+001 -5.664000e+001 2.091096e+001
    endloop
  endfacet
  facet normal 9.709418e-001 0.000000e+000 -2.393157e-001
    outer loop
      vertex   2.869365e+001 -4.964000e+001 1.849221e+001
      vertex   2.869365e+001 -3.200000e+001 1.849221e+001
      vertex   2.961000e+001 -4.964000e+001 2.221000e+001
    endloop
  endfacet
  facet normal 7.485107e-001 0.000000e+000 -6.631227e-001
    outer loop
      vertex   2.869365e+001 -4.964000e+001 1.849221e+001
      vertex   2.615452e+001 -4.964000e+001 1.562613e+001
      vertex   2.869365e+001 -3.200000e+001 1.849221e+001
    endloop
  endfacet
  facet normal 7.485107e-001 0.000000e+000 -6.631227e-001
    outer loop
      vertex   2.869365e+001 -3.200000e+001 1.849221e+001
      vertex   2.615452e+001 -4.964000e+001 1.562613e+001
      vertex   2.615452e+001 -3.200000e+001 1.562613e+001
    endloop
  endfacet
  facet normal 3.546049e-001 0.000000e+000 -9.350162e-001
    outer loop
      vertex   2.615452e+001 -3.200000e+001 1.562613e+001
      vertex   2.615452e+001 -4.964000e+001 1.562613e+001
      vertex   2.257429e+001 -4.964000e+001 1.426833e+001
    endloop
  endfacet
  facet normal -1.205367e-001 -0.000000e+000 -9.927089e-001
    outer loop
      vertex   2.257429e+001 -3.200000e+001 1.426833e+001
      vertex   2.257429e+001 -4.964000e+001 1.426833e+001
      vertex   1.877316e+001 -4.964000e+001 1.472987e+001
    endloop
  endfacet
  facet normal -5.680647e-001 -0.000000e+000 -8.229839e-001
    outer loop
      vertex   1.877316e+001 -3.200000e+001 1.472987e+001
      vertex   1.877316e+001 -4.964000e+001 1.472987e+001
      vertex   1.562191e+001 -4.964000e+001 1.690502e+001
    endloop
  endfacet
  facet normal -8.854560e-001 -0.000000e+000 -4.647232e-001
    outer loop
      vertex   1.562191e+001 -3.200000e+001 1.690502e+001
      vertex   1.562191e+001 -4.964000e+001 1.690502e+001
      vertex   1.384247e+001 -4.964000e+001 2.029547e+001
    endloop
  endfacet
  facet normal -1.000000e+000 0.000000e+000 0.000000e+000
    outer loop
      vertex   1.384247e+001 -3.200000e+001 2.029547e+001
      vertex   1.384247e+001 -4.964000e+001 2.029547e+001
      vertex   1.384247e+001 -4.964000e+001 2.412453e+001
    endloop
  endfacet
  facet normal -8.854560e-001 0.000000e+000 4.647232e-001
    outer loop
      vertex   1.384247e+001 -3.200000e+001 2.412453e+001
      vertex   1.384247e+001 -4.964000e+001 2.412453e+001
      vertex   1.562191e+001 -4.964000e+001 2.751498e+001
    endloop
  endfacet
  facet normal -5.680647e-001 0.000000e+000 8.229839e-001
    outer loop
      vertex   1.562191e+001 -3.200000e+001 2.751498e+001
      vertex   1.562191e+001 -4.964000e+001 2.751498e+001
      vertex   1.877316e+001 -4.964000e+001 2.969013e+001
    endloop
  endfacet
  facet normal -1.205367e-001 0.000000e+000 9.927089e-001
    outer loop
      vertex   1.877316e+001 -3.200000e+001 2.969013e+001
      vertex   1.877316e+001 -4.964000e+001 2.969013e+001
      vertex   2.257429e+001 -4.964000e+001 3.015167e+001
    endloop
  endfacet
  facet normal 3.546049e-001 0.000000e+000 9.350162e-001
    outer loop
      vertex   2.257429e+001 -3.200000e+001 3.015167e+001
      vertex   2.257429e+001 -4.964000e+001 3.015167e+001
      vertex   2.615452e+001 -4.964000e+001 2.879387e+001
    endloop
  endfacet
  facet normal 7.485107e-001 0.000000e+000 6.631227e-001
    outer loop
      vertex   2.615452e+001 -3.200000e+001 2.879387e+001
      vertex   2.615452e+001 -4.964000e+001 2.879387e+001
      vertex   2.869365e+001 -4.964000e+001 2.592779e+001
    endloop
  endfacet
  facet normal 9.709418e-001 0.000000e+000 2.393157e-001
    outer loop
      vertex   2.869365e+001 -3.200000e+001 2.592779e+001
      vertex   2.869365e+001 -4.964000e+001 2.592779e+001
      vertex   2.961000e+001 -3.200000e+001 2.221000e+001
    endloop
  endfacet
  facet normal 7.485107e-001 0.000000e+000 6.631227e-001
    outer loop
      vertex   2.869365e+001 -3.200000e+001 2.592779e+001
      vertex   2.615452e+001 -3.200000e+001 2.879387e+001
      vertex   2.869365e+001 -4.964000e+001 2.592779e+001
    endloop
  endfacet
  facet normal 3.546049e-001 0.000000e+000 -9.350162e-001
    outer loop
      vertex   2.615452e+001 -3.200000e+001 1.562613e+001
      vertex   2.257429e+001 -4.964000e+001 1.426833e+001
      vertex   2.257429e+001 -3.200000e+001 1.426833e+001
    endloop
  endfacet
  facet normal -1.205367e-001 0.000000e+000 -9.927089e-001
    outer loop
      vertex   2.257429e+001 -3.200000e+001 1.426833e+001
      vertex   1.877316e+001 -4.964000e+001 1.472987e+001
      vertex   1.877316e+001 -3.200000e+001 1.472987e+001
    endloop
  endfacet
  facet normal -5.680647e-001 0.000000e+000 -8.229839e-001
    outer loop
      vertex   1.877316e+001 -3.200000e+001 1.472987e+001
      vertex   1.562191e+001 -4.964000e+001 1.690502e+001
      vertex   1.562191e+001 -3.200000e+001 1.690502e+001
    endloop
  endfacet
  facet normal -8.854560e-001 0.000000e+000 -4.647232e-001
    outer loop
      vertex   1.562191e+001 -3.200000e+001 1.690502e+001
      vertex   1.384247e+001 -4.964000e+001 2.029547e+001
      vertex   1.384247e+001 -3.200000e+001 2.029547e+001
    endloop
  endfacet
  facet normal -1.000000e+000 0.000000e+000 0.000000e+000
    outer loop
      vertex   1.384247e+001 -3.200000e+001 2.029547e+001
      vertex   1.384247e+001 -4.964000e+001 2.412453e+001
      vertex   1.384247e+001 -3.200000e+001 2.412453e+001
    endloop
  endfacet
  facet normal -8.854560e-001 0.000000e+000 4.647232e-001
    outer loop
      vertex   1.384247e+001 -3.200000e+001 2.412453e+001
      vertex   1.562191e+001 -4.964000e+001 2.751498e+001
      vertex   1.562191e+001 -3.200000e+001 2.751498e+001
    endloop
  endfacet
  facet normal -5.680647e-001 0.000000e+000 8.229839e-001
    outer loop
      vertex   1.562191e+001 -3.200000e+001 2.751498e+001
      vertex   1.877316e+001 -4.964000e+001 2.969013e+001
      vertex   1.877316e+001 -3.200000e+001 2.969013e+001
    endloop
  endfacet
  facet normal -1.205367e-001 0.000000e+000 9.927089e-001
    outer loop
      vertex   1.877316e+001 -3.200000e+001 2.969013e+001
      vertex   2.257429e+001 -4.964000e+001 3.015167e+001
      vertex   2.257429e+001 -3.200000e+001 3.015167e+001
    endloop
  endfacet
  facet normal 3.546049e-001 -0.000000e+000 9.350162e-001
    outer loop
      vertex   2.257429e+001 -3.200000e+001 3.015167e+001
      vertex   2.615452e+001 -4.964000e+001 2.879387e+001
      vertex   2.615452e+001 -3.200000e+001 2.879387e+001
    endloop
  endfacet
  facet normal 9.709418e-001 -0.000000e+000 2.393157e-001
    outer loop
      vertex   2.869365e+001 -4.964000e+001 2.592779e+001
      vertex   2.961000e+001 -4.964000e+001 2.221000e+001
      vertex   2.961000e+001 -3.200000e+001 2.221000e+001
    endloop
  endfacet
  facet normal 9.709418e-001 0.000000e+000 -2.393157e-001
    outer loop
      vertex   2.961000e+001 -3.200000e+001 2.221000e+001
      vertex   2.961000e+001 -4.964000e+001 2.221000e+001
      vertex   2.869365e+001 -3.200000e+001 1.849221e+001
    endloop
  endfacet
  facet normal 0.000000e+000 -1.000000e+000 0.000000e+000
    outer loop
      vertex   2.275907e+001 -4.964000e+001 2.124582e+001
      vertex   2.869365e+001 -4.964000e+001 1.849221e+001
      vertex   2.311000e+001 -4.964000e+001 2.221000e+001
    endloop
  endfacet
  facet normal 0.000000e+000 -1.000000e+000 0.000000e+000
    outer loop
      vertex   2.275907e+001 -4.964000e+001 2.124582e+001
      vertex   2.615452e+001 -4.964000e+001 1.562613e+001
      vertex   2.869365e+001 -4.964000e+001 1.849221e+001
    endloop
  endfacet
  facet normal 0.000000e+000 -1.000000e+000 -0.000000e+000
    outer loop
      vertex   2.275907e+001 -4.964000e+001 2.124582e+001
      vertex   2.187047e+001 -4.964000e+001 2.073279e+001
      vertex   2.615452e+001 -4.964000e+001 1.562613e+001
    endloop
  endfacet
  facet normal -0.000000e+000 -1.000000e+000 -0.000000e+000
    outer loop
      vertex   2.615452e+001 -4.964000e+001 1.562613e+001
      vertex   2.187047e+001 -4.964000e+001 2.073279e+001
      vertex   2.257429e+001 -4.964000e+001 1.426833e+001
    endloop
  endfacet
  facet normal -0.000000e+000 -1.000000e+000 0.000000e+000
    outer loop
      vertex   2.257429e+001 -4.964000e+001 1.426833e+001
      vertex   2.187047e+001 -4.964000e+001 2.073279e+001
      vertex   1.877316e+001 -4.964000e+001 1.472987e+001
    endloop
  endfacet
  facet normal 0.000000e+000 -1.000000e+000 0.000000e+000
    outer loop
      vertex   1.877316e+001 -4.964000e+001 1.472987e+001
      vertex   2.187047e+001 -4.964000e+001 2.073279e+001
      vertex   2.086000e+001 -4.964000e+001 2.091096e+001
    endloop
  endfacet
  facet normal 0.000000e+000 -1.000000e+000 0.000000e+000
    outer loop
      vertex   1.562191e+001 -4.964000e+001 1.690502e+001
      vertex   2.086000e+001 -4.964000e+001 2.091096e+001
      vertex   2.020046e+001 -4.964000e+001 2.169697e+001
    endloop
  endfacet
  facet normal 0.000000e+000 -1.000000e+000 0.000000e+000
    outer loop
      vertex   1.384247e+001 -4.964000e+001 2.029547e+001
      vertex   2.020046e+001 -4.964000e+001 2.169697e+001
      vertex   2.020046e+001 -4.964000e+001 2.272303e+001
    endloop
  endfacet
  facet normal 0.000000e+000 -1.000000e+000 0.000000e+000
    outer loop
      vertex   1.384247e+001 -4.964000e+001 2.412453e+001
      vertex   2.020046e+001 -4.964000e+001 2.272303e+001
      vertex   1.562191e+001 -4.964000e+001 2.751498e+001
    endloop
  endfacet
  facet normal 0.000000e+000 -1.000000e+000 0.000000e+000
    outer loop
      vertex   1.384247e+001 -4.964000e+001 2.412453e+001
      vertex   1.384247e+001 -4.964000e+001 2.029547e+001
      vertex   2.020046e+001 -4.964000e+001 2.272303e+001
    endloop
  endfacet
  facet normal -0.000000e+000 -1.000000e+000 0.000000e+000
    outer loop
      vertex   1.877316e+001 -4.964000e+001 1.472987e+001
      vertex   2.086000e+001 -4.964000e+001 2.091096e+001
      vertex   1.562191e+001 -4.964000e+001 1.690502e+001
    endloop
  endfacet
  facet normal -0.000000e+000 -1.000000e+000 0.000000e+000
    outer loop
      vertex   1.562191e+001 -4.964000e+001 1.690502e+001
      vertex   2.020046e+001 -4.964000e+001 2.169697e+001
      vertex   1.384247e+001 -4.964000e+001 2.029547e+001
    endloop
  endfacet
  facet normal 0.000000e+000 -1.000000e+000 0.000000e+000
    outer loop
      vertex   2.020046e+001 -4.964000e+001 2.272303e+001
      vertex   2.086000e+001 -4.964000e+001 2.350904e+001
      vertex   1.562191e+001 -4.964000e+001 2.751498e+001
    endloop
  endfacet
  facet normal 0.000000e+000 -1.000000e+000 0.000000e+000
    outer loop
      vertex   1.562191e+001 -4.964000e+001 2.751498e+001
      vertex   2.086000e+001 -4.964000e+001 2.350904e+001
      vertex   1.877316e+001 -4.964000e+001 2.969013e+001
    endloop
  endfacet
  facet normal 0.000000e+000 -1.000000e+000 0.000000e+000
    outer loop
      vertex   1.877316e+001 -4.964000e+001 2.969013e+001
      vertex   2.086000e+001 -4.964000e+001 2.350904e+001
      vertex   2.187047e+001 -4.964000e+001 2.368721e+001
    endloop
  endfacet
  facet normal 0.000000e+000 -1.000000e+000 -0.000000e+000
    outer loop
      vertex   2.257429e+001 -4.964000e+001 3.015167e+001
      vertex   2.187047e+001 -4.964000e+001 2.368721e+001
      vertex   2.615452e+001 -4.964000e+001 2.879387e+001
    endloop
  endfacet
  facet normal 0.000000e+000 -1.000000e+000 -0.000000e+000
    outer loop
      vertex   2.257429e+001 -4.964000e+001 3.015167e+001
      vertex   1.877316e+001 -4.964000e+001 2.969013e+001
      vertex   2.187047e+001 -4.964000e+001 2.368721e+001
    endloop
  endfacet
  facet normal 0.000000e+000 -1.000000e+000 0.000000e+000
    outer loop
      vertex   2.187047e+001 -4.964000e+001 2.368721e+001
      vertex   2.275907e+001 -4.964000e+001 2.317418e+001
      vertex   2.615452e+001 -4.964000e+001 2.879387e+001
    endloop
  endfacet
  facet normal 0.000000e+000 -1.000000e+000 -0.000000e+000
    outer loop
      vertex   2.615452e+001 -4.964000e+001 2.879387e+001
      vertex   2.275907e+001 -4.964000e+001 2.317418e+001
      vertex   2.869365e+001 -4.964000e+001 2.592779e+001
    endloop
  endfacet
  facet normal 0.000000e+000 -1.000000e+000 -0.000000e+000
    outer loop
      vertex   2.869365e+001 -4.964000e+001 2.592779e+001
      vertex   2.275907e+001 -4.964000e+001 2.317418e+001
      vertex   2.311000e+001 -4.964000e+001 2.221000e+001
    endloop
  endfacet
  facet normal -0.000000e+000 -1.000000e+000 -0.000000e+000
    outer loop
      vertex   2.961000e+001 -4.964000e+001 2.221000e+001
      vertex   2.311000e+001 -4.964000e+001 2.221000e+001
      vertex   2.869365e+001 -4.964000e+001 1.849221e+001
    endloop
  endfacet
  facet normal -0.000000e+000 -1.000000e+000 0.000000e+000
    outer loop
      vertex   2.961000e+001 -4.964000e+001 2.221000e+001
      vertex   2.869365e+001 -4.964000e+001 2.592779e+001
      vertex   2.311000e+001 -4.964000e+001 2.221000e+001
    endloop
  endfacet
  facet normal 9.807853e-001 0.000000e+000 -1.950903e-001
    outer loop
      vertex   3.315849e+001 -3.200000e+001 1.742646e+001
      vertex   3.315849e+001 0.000000e+000 1.742646e+001
      vertex   3.411000e+001 -3.200000e+001 2.221000e+001
    endloop
  endfacet
  facet normal 8.314696e-001 0.000000e+000 -5.555702e-001
    outer loop
      vertex   3.315849e+001 -3.200000e+001 1.742646e+001
      vertex   3.044883e+001 -3.200000e+001 1.337117e+001
      vertex   3.315849e+001 0.000000e+000 1.742646e+001
    endloop
  endfacet
  facet normal 8.314696e-001 0.000000e+000 -5.555702e-001
    outer loop
      vertex   3.315849e+001 0.000000e+000 1.742646e+001
      vertex   3.044883e+001 -3.200000e+001 1.337117e+001
      vertex   3.044883e+001 0.000000e+000 1.337117e+001
    endloop
  endfacet
  facet normal 5.555702e-001 0.000000e+000 -8.314696e-001
    outer loop
      vertex   3.044883e+001 0.000000e+000 1.337117e+001
      vertex   3.044883e+001 -3.200000e+001 1.337117e+001
      vertex   2.639354e+001 -3.200000e+001 1.066151e+001
    endloop
  endfacet
  facet normal 1.950903e-001 0.000000e+000 -9.807853e-001
    outer loop
      vertex   2.639354e+001 0.000000e+000 1.066151e+001
      vertex   2.639354e+001 -3.200000e+001 1.066151e+001
      vertex   2.161000e+001 -3.200000e+001 9.710000e+000
    endloop
  endfacet
  facet normal -1.950903e-001 -0.000000e+000 -9.807853e-001
    outer loop
      vertex   2.161000e+001 0.000000e+000 9.710000e+000
      vertex   2.161000e+001 -3.200000e+001 9.710000e+000
      vertex   1.682646e+001 -3.200000e+001 1.066151e+001
    endloop
  endfacet
  facet normal -5.555702e-001 -0.000000e+000 -8.314696e-001
    outer loop
      vertex   1.682646e+001 0.000000e+000 1.066151e+001
      vertex   1.682646e+001 -3.200000e+001 1.066151e+001
      vertex   1.277117e+001 -3.200000e+001 1.337117e+001
    endloop
  endfacet
  facet normal -8.314696e-001 -0.000000e+000 -5.555702e-001
    outer loop
      vertex   1.277117e+001 0.000000e+000 1.337117e+001
      vertex   1.277117e+001 -3.200000e+001 1.337117e+001
      vertex   1.006151e+001 -3.200000e+001 1.742646e+001
    endloop
  endfacet
  facet normal -9.807853e-001 -0.000000e+000 -1.950903e-001
    outer loop
      vertex   1.006151e+001 0.000000e+000 1.742646e+001
      vertex   1.006151e+001 -3.200000e+001 1.742646e+001
      vertex   9.110000e+000 -3.200000e+001 2.221000e+001
    endloop
  endfacet
  facet normal -9.807853e-001 0.000000e+000 1.950903e-001
    outer loop
      vertex   9.110000e+000 0.000000e+000 2.221000e+001
      vertex   9.110000e+000 -3.200000e+001 2.221000e+001
      vertex   1.006151e+001 -3.200000e+001 2.699354e+001
    endloop
  endfacet
  facet normal -8.314696e-001 0.000000e+000 5.555702e-001
    outer loop
      vertex   1.006151e+001 0.000000e+000 2.699354e+001
      vertex   1.006151e+001 -3.200000e+001 2.699354e+001
      vertex   1.277117e+001 -3.200000e+001 3.104883e+001
    endloop
  endfacet
  facet normal -5.555702e-001 0.000000e+000 8.314696e-001
    outer loop
      vertex   1.277117e+001 0.000000e+000 3.104883e+001
      vertex   1.277117e+001 -3.200000e+001 3.104883e+001
      vertex   1.682646e+001 -3.200000e+001 3.375849e+001
    endloop
  endfacet
  facet normal -1.950903e-001 0.000000e+000 9.807853e-001
    outer loop
      vertex   1.682646e+001 0.000000e+000 3.375849e+001
      vertex   1.682646e+001 -3.200000e+001 3.375849e+001
      vertex   2.161000e+001 -3.200000e+001 3.471000e+001
    endloop
  endfacet
  facet normal 1.950903e-001 0.000000e+000 9.807853e-001
    outer loop
      vertex   2.161000e+001 0.000000e+000 3.471000e+001
      vertex   2.161000e+001 -3.200000e+001 3.471000e+001
      vertex   2.639354e+001 -3.200000e+001 3.375849e+001
    endloop
  endfacet
  facet normal 5.555702e-001 0.000000e+000 8.314696e-001
    outer loop
      vertex   2.639354e+001 0.000000e+000 3.375849e+001
      vertex   2.639354e+001 -3.200000e+001 3.375849e+001
      vertex   3.044883e+001 -3.200000e+001 3.104883e+001
    endloop
  endfacet
  facet normal 8.314696e-001 0.000000e+000 5.555702e-001
    outer loop
      vertex   3.044883e+001 0.000000e+000 3.104883e+001
      vertex   3.044883e+001 -3.200000e+001 3.104883e+001
      vertex   3.315849e+001 -3.200000e+001 2.699354e+001
    endloop
  endfacet
  facet normal 9.807853e-001 0.000000e+000 1.950903e-001
    outer loop
      vertex   3.315849e+001 0.000000e+000 2.699354e+001
      vertex   3.315849e+001 -3.200000e+001 2.699354e+001
      vertex   3.411000e+001 0.000000e+000 2.221000e+001
    endloop
  endfacet
  facet normal 8.314696e-001 0.000000e+000 5.555702e-001
    outer loop
      vertex   3.315849e+001 0.000000e+000 2.699354e+001
      vertex   3.044883e+001 0.000000e+000 3.104883e+001
      vertex   3.315849e+001 -3.200000e+001 2.699354e+001
    endloop
  endfacet
  facet normal 5.555702e-001 0.000000e+000 -8.314696e-001
    outer loop
      vertex   3.044883e+001 0.000000e+000 1.337117e+001
      vertex   2.639354e+001 -3.200000e+001 1.066151e+001
      vertex   2.639354e+001 0.000000e+000 1.066151e+001
    endloop
  endfacet
  facet normal 1.950903e-001 0.000000e+000 -9.807853e-001
    outer loop
      vertex   2.639354e+001 0.000000e+000 1.066151e+001
      vertex   2.161000e+001 -3.200000e+001 9.710000e+000
      vertex   2.161000e+001 0.000000e+000 9.710000e+000
    endloop
  endfacet
  facet normal -1.950903e-001 0.000000e+000 -9.807853e-001
    outer loop
      vertex   2.161000e+001 0.000000e+000 9.710000e+000
      vertex   1.682646e+001 -3.200000e+001 1.066151e+001
      vertex   1.682646e+001 0.000000e+000 1.066151e+001
    endloop
  endfacet
  facet normal -5.555702e-001 0.000000e+000 -8.314696e-001
    outer loop
      vertex   1.682646e+001 0.000000e+000 1.066151e+001
      vertex   1.277117e+001 -3.200000e+001 1.337117e+001
      vertex   1.277117e+001 0.000000e+000 1.337117e+001
    endloop
  endfacet
  facet normal -8.314696e-001 0.000000e+000 -5.555702e-001
    outer loop
      vertex   1.277117e+001 0.000000e+000 1.337117e+001
      vertex   1.006151e+001 -3.200000e+001 1.742646e+001
      vertex   1.006151e+001 0.000000e+000 1.742646e+001
    endloop
  endfacet
  facet normal -9.807853e-001 0.000000e+000 -1.950903e-001
    outer loop
      vertex   1.006151e+001 0.000000e+000 1.742646e+001
      vertex   9.110000e+000 -3.200000e+001 2.221000e+001
      vertex   9.110000e+000 0.000000e+000 2.221000e+001
    endloop
  endfacet
  facet normal -9.807853e-001 0.000000e+000 1.950903e-001
    outer loop
      vertex   9.110000e+000 0.000000e+000 2.221000e+001
      vertex   1.006151e+001 -3.200000e+001 2.699354e+001
      vertex   1.006151e+001 0.000000e+000 2.699354e+001
    endloop
  endfacet
  facet normal -8.314696e-001 0.000000e+000 5.555702e-001
    outer loop
      vertex   1.006151e+001 0.000000e+000 2.699354e+001
      vertex   1.277117e+001 -3.200000e+001 3.104883e+001
      vertex   1.277117e+001 0.000000e+000 3.104883e+001
    endloop
  endfacet
  facet normal -5.555702e-001 0.000000e+000 8.314696e-001
    outer loop
      vertex   1.277117e+001 0.000000e+000 3.104883e+001
      vertex   1.682646e+001 -3.200000e+001 3.375849e+001
      vertex   1.682646e+001 0.000000e+000 3.375849e+001
    endloop
  endfacet
  facet normal -1.950903e-001 0.000000e+000 9.807853e-001
    outer loop
      vertex   1.682646e+001 0.000000e+000 3.375849e+001
      vertex   2.161000e+001 -3.200000e+001 3.471000e+001
      vertex   2.161000e+001 0.000000e+000 3.471000e+001
    endloop
  endfacet
  facet normal 1.950903e-001 -0.000000e+000 9.807853e-001
    outer loop
      vertex   2.161000e+001 0.000000e+000 3.471000e+001
      vertex   2.639354e+001 -3.200000e+001 3.375849e+001
      vertex   2.639354e+001 0.000000e+000 3.375849e+001
    endloop
  endfacet
  facet normal 5.555702e-001 -0.000000e+000 8.314696e-001
    outer loop
      vertex   2.639354e+001 0.000000e+000 3.375849e+001
      vertex   3.044883e+001 -3.200000e+001 3.104883e+001
      vertex   3.044883e+001 0.000000e+000 3.104883e+001
    endloop
  endfacet
  facet normal 9.807853e-001 -0.000000e+000 1.950903e-001
    outer loop
      vertex   3.315849e+001 -3.200000e+001 2.699354e+001
      vertex   3.411000e+001 -3.200000e+001 2.221000e+001
      vertex   3.411000e+001 0.000000e+000 2.221000e+001
    endloop
  endfacet
  facet normal 9.807853e-001 0.000000e+000 -1.950903e-001
    outer loop
      vertex   3.411000e+001 0.000000e+000 2.221000e+001
      vertex   3.411000e+001 -3.200000e+001 2.221000e+001
      vertex   3.315849e+001 0.000000e+000 1.742646e+001
    endloop
  endfacet
  facet normal 0.000000e+000 -1.000000e+000 0.000000e+000
    outer loop
      vertex   2.869365e+001 -3.200000e+001 1.849221e+001
      vertex   3.315849e+001 -3.200000e+001 1.742646e+001
      vertex   2.961000e+001 -3.200000e+001 2.221000e+001
    endloop
  endfacet
  facet normal 0.000000e+000 -1.000000e+000 0.000000e+000
    outer loop
      vertex   2.869365e+001 -3.200000e+001 1.849221e+001
      vertex   3.044883e+001 -3.200000e+001 1.337117e+001
      vertex   3.315849e+001 -3.200000e+001 1.742646e+001
    endloop
  endfacet
  facet normal 0.000000e+000 -1.000000e+000 -0.000000e+000
    outer loop
      vertex   2.869365e+001 -3.200000e+001 1.849221e+001
      vertex   2.615452e+001 -3.200000e+001 1.562613e+001
      vertex   3.044883e+001 -3.200000e+001 1.337117e+001
    endloop
  endfacet
  facet normal -0.000000e+000 -1.000000e+000 -0.000000e+000
    outer loop
      vertex   3.044883e+001 -3.200000e+001 1.337117e+001
      vertex   2.615452e+001 -3.200000e+001 1.562613e+001
      vertex   2.639354e+001 -3.200000e+001 1.066151e+001
    endloop
  endfacet
  facet normal -0.000000e+000 -1.000000e+000 0.000000e+000
    outer loop
      vertex   2.639354e+001 -3.200000e+001 1.066151e+001
      vertex   2.615452e+001 -3.200000e+001 1.562613e+001
      vertex   2.257429e+001 -3.200000e+001 1.426833e+001
    endloop
  endfacet
  facet normal 0.000000e+000 -1.000000e+000 0.000000e+000
    outer loop
      vertex   2.161000e+001 -3.200000e+001 9.710000e+000
      vertex   2.257429e+001 -3.200000e+001 1.426833e+001
      vertex   1.877316e+001 -3.200000e+001 1.472987e+001
    endloop
  endfacet
  facet normal -0.000000e+000 -1.000000e+000 0.000000e+000
    outer loop
      vertex   1.682646e+001 -3.200000e+001 1.066151e+001
      vertex   1.877316e+001 -3.200000e+001 1.472987e+001
      vertex   1.277117e+001 -3.200000e+001 1.337117e+001
    endloop
  endfacet
  facet normal 0.000000e+000 -1.000000e+000 0.000000e+000
    outer loop
      vertex   1.682646e+001 -3.200000e+001 1.066151e+001
      vertex   2.161000e+001 -3.200000e+001 9.710000e+000
      vertex   1.877316e+001 -3.200000e+001 1.472987e+001
    endloop
  endfacet
  facet normal -0.000000e+000 -1.000000e+000 0.000000e+000
    outer loop
      vertex   2.639354e+001 -3.200000e+001 1.066151e+001
      vertex   2.257429e+001 -3.200000e+001 1.426833e+001
      vertex   2.161000e+001 -3.200000e+001 9.710000e+000
    endloop
  endfacet
  facet normal -0.000000e+000 -1.000000e+000 0.000000e+000
    outer loop
      vertex   1.877316e+001 -3.200000e+001 1.472987e+001
      vertex   1.562191e+001 -3.200000e+001 1.690502e+001
      vertex   1.277117e+001 -3.200000e+001 1.337117e+001
    endloop
  endfacet
  facet normal 0.000000e+000 -1.000000e+000 0.000000e+000
    outer loop
      vertex   1.277117e+001 -3.200000e+001 1.337117e+001
      vertex   1.562191e+001 -3.200000e+001 1.690502e+001
      vertex   1.006151e+001 -3.200000e+001 1.742646e+001
    endloop
  endfacet
  facet normal 0.000000e+000 -1.000000e+000 0.000000e+000
    outer loop
      vertex   1.006151e+001 -3.200000e+001 1.742646e+001
      vertex   1.562191e+001 -3.200000e+001 1.690502e+001
      vertex   1.384247e+001 -3.200000e+001 2.029547e+001
    endloop
  endfacet
  facet normal 0.000000e+000 -1.000000e+000 0.000000e+000
    outer loop
      vertex   9.110000e+000 -3.200000e+001 2.221000e+001
      vertex   1.384247e+001 -3.200000e+001 2.029547e+001
      vertex   1.384247e+001 -3.200000e+001 2.412453e+001
    endloop
  endfacet
  facet normal 0.000000e+000 -1.000000e+000 0.000000e+000
    outer loop
      vertex   1.006151e+001 -3.200000e+001 2.699354e+001
      vertex   1.384247e+001 -3.200000e+001 2.412453e+001
      vertex   1.562191e+001 -3.200000e+001 2.751498e+001
    endloop
  endfacet
  facet normal 0.000000e+000 -1.000000e+000 0.000000e+000
    outer loop
      vertex   1.277117e+001 -3.200000e+001 3.104883e+001
      vertex   1.562191e+001 -3.200000e+001 2.751498e+001
      vertex   1.877316e+001 -3.200000e+001 2.969013e+001
    endloop
  endfacet
  facet normal 0.000000e+000 -1.000000e+000 0.000000e+000
    outer loop
      vertex   1.682646e+001 -3.200000e+001 3.375849e+001
      vertex   1.877316e+001 -3.200000e+001 2.969013e+001
      vertex   2.161000e+001 -3.200000e+001 3.471000e+001
    endloop
  endfacet
  facet normal 0.000000e+000 -1.000000e+000 -0.000000e+000
    outer loop
      vertex   1.682646e+001 -3.200000e+001 3.375849e+001
      vertex   1.277117e+001 -3.200000e+001 3.104883e+001
      vertex   1.877316e+001 -3.200000e+001 2.969013e+001
    endloop
  endfacet
  facet normal 0.000000e+000 -1.000000e+000 0.000000e+000
    outer loop
      vertex   1.006151e+001 -3.200000e+001 1.742646e+001
      vertex   1.384247e+001 -3.200000e+001 2.029547e+001
      vertex   9.110000e+000 -3.200000e+001 2.221000e+001
    endloop
  endfacet
  facet normal 0.000000e+000 -1.000000e+000 0.000000e+000
    outer loop
      vertex   9.110000e+000 -3.200000e+001 2.221000e+001
      vertex   1.384247e+001 -3.200000e+001 2.412453e+001
      vertex   1.006151e+001 -3.200000e+001 2.699354e+001
    endloop
  endfacet
  facet normal 0.000000e+000 -1.000000e+000 0.000000e+000
    outer loop
      vertex   1.006151e+001 -3.200000e+001 2.699354e+001
      vertex   1.562191e+001 -3.200000e+001 2.751498e+001
      vertex   1.277117e+001 -3.200000e+001 3.104883e+001
    endloop
  endfacet
  facet normal 0.000000e+000 -1.000000e+000 0.000000e+000
    outer loop
      vertex   1.877316e+001 -3.200000e+001 2.969013e+001
      vertex   2.257429e+001 -3.200000e+001 3.015167e+001
      vertex   2.161000e+001 -3.200000e+001 3.471000e+001
    endloop
  endfacet
  facet normal 0.000000e+000 -1.000000e+000 0.000000e+000
    outer loop
      vertex   2.161000e+001 -3.200000e+001 3.471000e+001
      vertex   2.257429e+001 -3.200000e+001 3.015167e+001
      vertex   2.639354e+001 -3.200000e+001 3.375849e+001
    endloop
  endfacet
  facet normal 0.000000e+000 -1.000000e+000 -0.000000e+000
    outer loop
      vertex   2.639354e+001 -3.200000e+001 3.375849e+001
      vertex   2.257429e+001 -3.200000e+001 3.015167e+001
      vertex   2.615452e+001 -3.200000e+001 2.879387e+001
    endloop
  endfacet
  facet normal 0.000000e+000 -1.000000e+000 -0.000000e+000
    outer loop
      vertex   3.044883e+001 -3.200000e+001 3.104883e+001
      vertex   2.615452e+001 -3.200000e+001 2.879387e+001
      vertex   2.869365e+001 -3.200000e+001 2.592779e+001
    endloop
  endfacet
  facet normal 0.000000e+000 -1.000000e+000 -0.000000e+000
    outer loop
      vertex   3.315849e+001 -3.200000e+001 2.699354e+001
      vertex   2.869365e+001 -3.200000e+001 2.592779e+001
      vertex   2.961000e+001 -3.200000e+001 2.221000e+001
    endloop
  endfacet
  facet normal -0.000000e+000 -1.000000e+000 -0.000000e+000
    outer loop
      vertex   3.411000e+001 -3.200000e+001 2.221000e+001
      vertex   2.961000e+001 -3.200000e+001 2.221000e+001
      vertex   3.315849e+001 -3.200000e+001 1.742646e+001
    endloop
  endfacet
  facet normal -0.000000e+000 -1.000000e+000 0.000000e+000
    outer loop
      vertex   3.411000e+001 -3.200000e+001 2.221000e+001
      vertex   3.315849e+001 -3.200000e+001 2.699354e+001
      vertex   2.961000e+001 -3.200000e+001 2.221000e+001
    endloop
  endfacet
  facet normal 0.000000e+000 -1.000000e+000 -0.000000e+000
    outer loop
      vertex   2.639354e+001 -3.200000e+001 3.375849e+001
      vertex   2.615452e+001 -3.200000e+001 2.879387e+001
      vertex   3.044883e+001 -3.200000e+001 3.104883e+001
    endloop
  endfacet
  facet normal 0.000000e+000 -1.000000e+000 -0.000000e+000
    outer loop
      vertex   3.044883e+001 -3.200000e+001 3.104883e+001
      vertex   2.869365e+001 -3.200000e+001 2.592779e+001
      vertex   3.315849e+001 -3.200000e+001 2.699354e+001
    endloop
  endfacet
  facet normal 1.000000e+000 -0.000000e+000 0.000000e+000
    outer loop
      vertex   5.080000e+001 6.300000e+001 4.410000e+001
      vertex   5.080000e+001 6.300000e+001 0.000000e+000
      vertex   5.080000e+001 1.841500e+002 4.410000e+001
    endloop
  endfacet
  facet normal 1.000000e+000 -0.000000e+000 0.000000e+000
    outer loop
      vertex   5.080000e+001 1.841500e+002 4.410000e+001
      vertex   5.080000e+001 6.300000e+001 0.000000e+000
      vertex   5.080000e+001 1.841500e+002 0.000000e+000
    endloop
  endfacet
  facet normal -1.000000e+000 -0.000000e+000 -0.000000e+000
    outer loop
      vertex   0.000000e+000 1.841500e+002 4.410000e+001
      vertex   0.000000e+000 1.841500e+002 0.000000e+000
      vertex   0.000000e+000 0.000000e+000 4.410000e+001
    endloop
  endfacet
  facet normal -1.000000e+000 -0.000000e+000 -0.000000e+000
    outer loop
      vertex   0.000000e+000 0.000000e+000 4.410000e+001
      vertex   0.000000e+000 1.841500e+002 0.000000e+000
      vertex   0.000000e+000 0.000000e+000 0.000000e+000
    endloop
  endfacet
  facet normal 0.000000e+000 1.000000e+000 0.000000e+000
    outer loop
      vertex   5.080000e+001 1.841500e+002 4.410000e+001
      vertex   5.080000e+001 1.841500e+002 0.000000e+000
      vertex   0.000000e+000 1.841500e+002 4.410000e+001
    endloop
  endfacet
  facet normal 0.000000e+000 1.000000e+000 0.000000e+000
    outer loop
      vertex   0.000000e+000 1.841500e+002 4.410000e+001
      vertex   5.080000e+001 1.841500e+002 0.000000e+000
      vertex   0.000000e+000 1.841500e+002 0.000000e+000
    endloop
  endfacet
  facet normal 0.000000e+000 1.000000e+000 0.000000e+000
    outer loop
      vertex   1.208000e+002 6.300000e+001 4.410000e+001
      vertex   1.208000e+002 6.300000e+001 0.000000e+000
      vertex   5.080000e+001 6.300000e+001 4.410000e+001
    endloop
  endfacet
  facet normal 0.000000e+000 1.000000e+000 0.000000e+000
    outer loop
      vertex   5.080000e+001 6.300000e+001 4.410000e+001
      vertex   1.208000e+002 6.300000e+001 0.000000e+000
      vertex   5.080000e+001 6.300000e+001 0.000000e+000
    endloop
  endfacet
  facet normal 1.000000e+000 -0.000000e+000 0.000000e+000
    outer loop
      vertex   1.208000e+002 0.000000e+000 4.410000e+001
      vertex   1.208000e+002 0.000000e+000 0.000000e+000
      vertex   1.208000e+002 6.300000e+001 4.410000e+001
    endloop
  endfacet
  facet normal 1.000000e+000 -0.000000e+000 0.000000e+000
    outer loop
      vertex   1.208000e+002 6.300000e+001 4.410000e+001
      vertex   1.208000e+002 0.000000e+000 0.000000e+000
      vertex   1.208000e+002 6.300000e+001 0.000000e+000
    endloop
  endfacet
  facet normal 0.000000e+000 -1.000000e+000 0.000000e+000
    outer loop
      vertex   3.315849e+001 0.000000e+000 1.742646e+001
      vertex   1.208000e+002 0.000000e+000 0.000000e+000
      vertex   3.411000e+001 0.000000e+000 2.221000e+001
    endloop
  endfacet
  facet normal 0.000000e+000 -1.000000e+000 -0.000000e+000
    outer loop
      vertex   3.315849e+001 0.000000e+000 1.742646e+001
      vertex   3.044883e+001 0.000000e+000 1.337117e+001
      vertex   1.208000e+002 0.000000e+000 0.000000e+000
    endloop
  endfacet
  facet normal -0.000000e+000 -1.000000e+000 0.000000e+000
    outer loop
      vertex   1.208000e+002 0.000000e+000 0.000000e+000
      vertex   3.044883e+001 0.000000e+000 1.337117e+001
      vertex   2.639354e+001 0.000000e+000 1.066151e+001
    endloop
  endfacet
  facet normal -0.000000e+000 -1.000000e+000 0.000000e+000
    outer loop
      vertex   0.000000e+000 0.000000e+000 0.000000e+000
      vertex   2.639354e+001 0.000000e+000 1.066151e+001
      vertex   2.161000e+001 0.000000e+000 9.710000e+000
    endloop
  endfacet
  facet normal 0.000000e+000 -1.000000e+000 -0.000000e+000
    outer loop
      vertex   1.682646e+001 0.000000e+000 1.066151e+001
      vertex   0.000000e+000 0.000000e+000 0.000000e+000
      vertex   2.161000e+001 0.000000e+000 9.710000e+000
    endloop
  endfacet
  facet normal -0.000000e+000 -1.000000e+000 0.000000e+000
    outer loop
      vertex   1.682646e+001 0.000000e+000 1.066151e+001
      vertex   1.277117e+001 0.000000e+000 1.337117e+001
      vertex   0.000000e+000 0.000000e+000 0.000000e+000
    endloop
  endfacet
  facet normal 0.000000e+000 -1.000000e+000 0.000000e+000
    outer loop
      vertex   0.000000e+000 0.000000e+000 0.000000e+000
      vertex   1.277117e+001 0.000000e+000 1.337117e+001
      vertex   1.006151e+001 0.000000e+000 1.742646e+001
    endloop
  endfacet
  facet normal 0.000000e+000 -1.000000e+000 -0.000000e+000
    outer loop
      vertex   9.110000e+000 0.000000e+000 2.221000e+001
      vertex   0.000000e+000 0.000000e+000 0.000000e+000
      vertex   1.006151e+001 0.000000e+000 1.742646e+001
    endloop
  endfacet
  facet normal -0.000000e+000 -1.000000e+000 -0.000000e+000
    outer loop
      vertex   9.110000e+000 0.000000e+000 2.221000e+001
      vertex   0.000000e+000 0.000000e+000 4.410000e+001
      vertex   0.000000e+000 0.000000e+000 0.000000e+000
    endloop
  endfacet
  facet normal 0.000000e+000 -1.000000e+000 0.000000e+000
    outer loop
      vertex   9.110000e+000 0.000000e+000 2.221000e+001
      vertex   1.006151e+001 0.000000e+000 2.699354e+001
      vertex   0.000000e+000 0.000000e+000 4.410000e+001
    endloop
  endfacet
  facet normal 0.000000e+000 -1.000000e+000 0.000000e+000
    outer loop
      vertex   0.000000e+000 0.000000e+000 4.410000e+001
      vertex   1.006151e+001 0.000000e+000 2.699354e+001
      vertex   1.277117e+001 0.000000e+000 3.104883e+001
    endloop
  endfacet
  facet normal -0.000000e+000 -1.000000e+000 -0.000000e+000
    outer loop
      vertex   1.682646e+001 0.000000e+000 3.375849e+001
      vertex   0.000000e+000 0.000000e+000 4.410000e+001
      vertex   1.277117e+001 0.000000e+000 3.104883e+001
    endloop
  endfacet
  facet normal 0.000000e+000 -1.000000e+000 0.000000e+000
    outer loop
      vertex   1.682646e+001 0.000000e+000 3.375849e+001
      vertex   2.161000e+001 0.000000e+000 3.471000e+001
      vertex   0.000000e+000 0.000000e+000 4.410000e+001
    endloop
  endfacet
  facet normal 0.000000e+000 -1.000000e+000 0.000000e+000
    outer loop
      vertex   0.000000e+000 0.000000e+000 4.410000e+001
      vertex   2.161000e+001 0.000000e+000 3.471000e+001
      vertex   2.639354e+001 0.000000e+000 3.375849e+001
    endloop
  endfacet
  facet normal 0.000000e+000 -1.000000e+000 -0.000000e+000
    outer loop
      vertex   1.208000e+002 0.000000e+000 4.410000e+001
      vertex   2.639354e+001 0.000000e+000 3.375849e+001
      vertex   3.044883e+001 0.000000e+000 3.104883e+001
    endloop
  endfacet
  facet normal -0.000000e+000 -1.000000e+000 0.000000e+000
    outer loop
      vertex   3.315849e+001 0.000000e+000 2.699354e+001
      vertex   1.208000e+002 0.000000e+000 4.410000e+001
      vertex   3.044883e+001 0.000000e+000 3.104883e+001
    endloop
  endfacet
  facet normal 0.000000e+000 -1.000000e+000 0.000000e+000
    outer loop
      vertex   3.315849e+001 0.000000e+000 2.699354e+001
      vertex   3.411000e+001 0.000000e+000 2.221000e+001
      vertex   1.208000e+002 0.000000e+000 4.410000e+001
    endloop
  endfacet
  facet normal 0.000000e+000 -1.000000e+000 -0.000000e+000
    outer loop
      vertex   1.208000e+002 0.000000e+000 4.410000e+001
      vertex   3.411000e+001 0.000000e+000 2.221000e+001
      vertex   1.208000e+002 0.000000e+000 0.000000e+000
    endloop
  endfacet
  facet normal -0.000000e+000 -1.000000e+000 0.000000e+000
    outer loop
      vertex   1.208000e+002 0.000000e+000 0.000000e+000
      vertex   2.639354e+001 0.000000e+000 1.066151e+001
      vertex   0.000000e+000 0.000000e+000 0.000000e+000
    endloop
  endfacet
  facet normal 0.000000e+000 -1.000000e+000 0.000000e+000
    outer loop
      vertex   0.000000e+000 0.000000e+000 4.410000e+001
      vertex   2.639354e+001 0.000000e+000 3.375849e+001
      vertex   1.208000e+002 0.000000e+000 4.410000e+001
    endloop
  endfacet
  facet normal -0.000000e+000 -0.000000e+000 -1.000000e+000
    outer loop
      vertex   1.208000e+002 6.300000e+001 0.000000e+000
      vertex   1.208000e+002 0.000000e+000 0.000000e+000
      vertex   5.080000e+001 6.300000e+001 0.000000e+000
    endloop
  endfacet
  facet normal -0.000000e+000 -0.000000e+000 -1.000000e+000
    outer loop
      vertex   5.080000e+001 6.300000e+001 0.000000e+000
      vertex   1.208000e+002 0.000000e+000 0.000000e+000
      vertex   0.000000e+000 0.000000e+000 0.000000e+000
    endloop
  endfacet
  facet normal 0.000000e+000 -0.000000e+000 -1.000000e+000
    outer loop
      vertex   0.000000e+000 1.841500e+002 0.000000e+000
      vertex   5.080000e+001 6.300000e+001 0.000000e+000
      vertex   0.000000e+000 0.000000e+000 0.000000e+000
    endloop
  endfacet
  facet normal 0.000000e+000 0.000000e+000 -1.000000e+000
    outer loop
      vertex   0.000000e+000 1.841500e+002 0.000000e+000
      vertex   5.080000e+001 1.841500e+002 0.000000e+000
      vertex   5.080000e+001 6.300000e+001 0.000000e+000
    endloop
  endfacet
  facet normal -0.000000e+000 0.000000e+000 1.000000e+000
    outer loop
      vertex   0.000000e+000 1.841500e+002 4.410000e+001
      vertex   0.000000e+000 0.000000e+000 4.410000e+001
      vertex   5.080000e+001 6.300000e+001 4.410000e+001
    endloop
  endfacet
  facet normal 0.000000e+000 0.000000e+000 1.000000e+000
    outer loop
      vertex   5.080000e+001 1.841500e+002 4.410000e+001
      vertex   0.000000e+000 1.841500e+002 4.410000e+001
      vertex   5.080000e+001 6.300000e+001 4.410000e+001
    endloop
  endfacet
  facet normal 0.000000e+000 0.000000e+000 1.000000e+000
    outer loop
      vertex   1.208000e+002 6.300000e+001 4.410000e+001
      vertex   5.080000e+001 6.300000e+001 4.410000e+001
      vertex   1.208000e+002 0.000000e+000 4.410000e+001
    endloop
  endfacet
  facet normal 0.000000e+000 0.000000e+000 1.000000e+000
    outer loop
      vertex   1.208000e+002 0.000000e+000 4.410000e+001
      vertex   5.080000e+001 6.300000e+001 4.410000e+001
      vertex   0.000000e+000 0.000000e+000 4.410000e+001
    endloop
  endfacet
endsolid
