solid ascii
  facet normal -1.000000e+000 0.000000e+000 -0.000000e+000
    outer loop
      vertex   0.000000e+000 0.000000e+000 6.030000e+001
      vertex   0.000000e+000 1.524000e+003 6.030000e+001
      vertex   0.000000e+000 0.000000e+000 0.000000e+000
    endloop
  endfacet
  facet normal -1.000000e+000 0.000000e+000 0.000000e+000
    outer loop
      vertex   0.000000e+000 0.000000e+000 0.000000e+000
      vertex   0.000000e+000 1.524000e+003 6.030000e+001
      vertex   0.000000e+000 1.524000e+003 0.000000e+000
    endloop
  endfacet
  facet normal 0.000000e+000 1.000000e+000 0.000000e+000
    outer loop
      vertex   6.096000e+002 1.524000e+003 6.030000e+001
      vertex   6.096000e+002 1.524000e+003 0.000000e+000
      vertex   0.000000e+000 1.524000e+003 6.030000e+001
    endloop
  endfacet
  facet normal 0.000000e+000 1.000000e+000 0.000000e+000
    outer loop
      vertex   0.000000e+000 1.524000e+003 6.030000e+001
      vertex   6.096000e+002 1.524000e+003 0.000000e+000
      vertex   0.000000e+000 1.524000e+003 0.000000e+000
    endloop
  endfacet
  facet normal 1.000000e+000 0.000000e+000 0.000000e+000
    outer loop
      vertex   6.096000e+002 1.524000e+003 6.030000e+001
      vertex   6.096000e+002 0.000000e+000 6.030000e+001
      vertex   6.096000e+002 1.524000e+003 0.000000e+000
    endloop
  endfacet
  facet normal 1.000000e+000 0.000000e+000 0.000000e+000
    outer loop
      vertex   6.096000e+002 1.524000e+003 0.000000e+000
      vertex   6.096000e+002 0.000000e+000 6.030000e+001
      vertex   6.096000e+002 0.000000e+000 0.000000e+000
    endloop
  endfacet
  facet normal 0.000000e+000 -1.000000e+000 0.000000e+000
    outer loop
      vertex   0.000000e+000 0.000000e+000 6.030000e+001
      vertex   0.000000e+000 0.000000e+000 0.000000e+000
      vertex   6.096000e+002 0.000000e+000 6.030000e+001
    endloop
  endfacet
  facet normal 0.000000e+000 -1.000000e+000 -0.000000e+000
    outer loop
      vertex   6.096000e+002 0.000000e+000 6.030000e+001
      vertex   0.000000e+000 0.000000e+000 0.000000e+000
      vertex   6.096000e+002 0.000000e+000 0.000000e+000
    endloop
  endfacet
  facet normal 0.000000e+000 0.000000e+000 -1.000000e+000
    outer loop
      vertex   6.096000e+002 0.000000e+000 0.000000e+000
      vertex   0.000000e+000 0.000000e+000 0.000000e+000
      vertex   6.096000e+002 1.524000e+003 0.000000e+000
    endloop
  endfacet
  facet normal -0.000000e+000 0.000000e+000 -1.000000e+000
    outer loop
      vertex   6.096000e+002 1.524000e+003 0.000000e+000
      vertex   0.000000e+000 0.000000e+000 0.000000e+000
      vertex   0.000000e+000 1.524000e+003 0.000000e+000
    endloop
  endfacet
  facet normal 0.000000e+000 -0.000000e+000 1.000000e+000
    outer loop
      vertex   0.000000e+000 0.000000e+000 6.030000e+001
      vertex   6.096000e+002 0.000000e+000 6.030000e+001
      vertex   0.000000e+000 1.524000e+003 6.030000e+001
    endloop
  endfacet
  facet normal -0.000000e+000 0.000000e+000 1.000000e+000
    outer loop
      vertex   0.000000e+000 1.524000e+003 6.030000e+001
      vertex   6.096000e+002 0.000000e+000 6.030000e+001
      vertex   6.096000e+002 1.524000e+003 6.030000e+001
    endloop
  endfacet
endsolid
