solid ascii
  facet normal 1.490423e-001 9.888308e-001 7.993424e-015
    outer loop
      vertex   1.202778e+001 1.066133e+001 1.504418e+001
      vertex   1.052482e+001 1.088787e+001 1.004418e+001
      vertex   1.052482e+001 1.088787e+001 1.504418e+001
    endloop
  endfacet
  facet normal 1.490423e-001 9.888308e-001 8.344728e-015
    outer loop
      vertex   1.202778e+001 1.066133e+001 1.504418e+001
      vertex   1.202778e+001 1.066133e+001 1.004418e+001
      vertex   1.052482e+001 1.088787e+001 1.004418e+001
    endloop
  endfacet
  facet normal 4.338837e-001 9.009689e-001 8.137093e-015
    outer loop
      vertex   1.202778e+001 1.066133e+001 1.504418e+001
      vertex   1.339720e+001 1.000186e+001 1.504418e+001
      vertex   1.202778e+001 1.066133e+001 1.004418e+001
    endloop
  endfacet
  facet normal 4.338837e-001 9.009689e-001 8.132767e-015
    outer loop
      vertex   1.202778e+001 1.066133e+001 1.004418e+001
      vertex   1.339720e+001 1.000186e+001 1.504418e+001
      vertex   1.339720e+001 1.000186e+001 1.004418e+001
    endloop
  endfacet
  facet normal 6.801727e-001 7.330519e-001 7.198173e-015
    outer loop
      vertex   1.339720e+001 1.000186e+001 1.004418e+001
      vertex   1.339720e+001 1.000186e+001 1.504418e+001
      vertex   1.451139e+001 8.968036e+000 1.504418e+001
    endloop
  endfacet
  facet normal 8.660254e-001 5.000000e-001 5.623991e-015
    outer loop
      vertex   1.451139e+001 8.968036e+000 1.004418e+001
      vertex   1.451139e+001 8.968036e+000 1.504418e+001
      vertex   1.527136e+001 7.651731e+000 1.504418e+001
    endloop
  endfacet
  facet normal 9.749279e-001 2.225209e-001 3.203728e-015
    outer loop
      vertex   1.527136e+001 7.651731e+000 1.004418e+001
      vertex   1.527136e+001 7.651731e+000 1.504418e+001
      vertex   1.560958e+001 6.169900e+000 1.504418e+001
    endloop
  endfacet
  facet normal 9.972038e-001 -7.473009e-002 1.515030e-015
    outer loop
      vertex   1.560958e+001 6.169900e+000 1.004418e+001
      vertex   1.560958e+001 6.169900e+000 1.504418e+001
      vertex   1.549600e+001 4.654211e+000 1.504418e+001
    endloop
  endfacet
  facet normal 9.308737e-001 -3.653410e-001 -1.331726e-015
    outer loop
      vertex   1.549600e+001 4.654211e+000 1.004418e+001
      vertex   1.549600e+001 4.654211e+000 1.504418e+001
      vertex   1.494070e+001 3.239340e+000 1.504418e+001
    endloop
  endfacet
  facet normal 7.818315e-001 -6.234898e-001 -3.705874e-015
    outer loop
      vertex   1.494070e+001 3.239340e+000 1.004418e+001
      vertex   1.494070e+001 3.239340e+000 1.504418e+001
      vertex   1.399303e+001 2.051004e+000 1.504418e+001
    endloop
  endfacet
  facet normal 5.633201e-001 -8.262388e-001 -5.750739e-015
    outer loop
      vertex   1.399303e+001 2.051004e+000 1.004418e+001
      vertex   1.399303e+001 2.051004e+000 1.504418e+001
      vertex   1.273720e+001 1.194792e+000 1.504418e+001
    endloop
  endfacet
  facet normal 2.947552e-001 -9.555728e-001 -7.284626e-015
    outer loop
      vertex   1.273720e+001 1.194792e+000 1.004418e+001
      vertex   1.273720e+001 1.194792e+000 1.504418e+001
      vertex   1.128479e+001 7.467819e-001 1.504418e+001
    endloop
  endfacet
  facet normal -2.921757e-016 -1.000000e+000 -8.171241e-015
    outer loop
      vertex   1.128479e+001 7.467819e-001 1.004418e+001
      vertex   1.128479e+001 7.467819e-001 1.504418e+001
      vertex   9.764851e+000 7.467819e-001 1.504418e+001
    endloop
  endfacet
  facet normal -2.947552e-001 -9.555728e-001 -8.331806e-015
    outer loop
      vertex   9.764851e+000 7.467819e-001 1.004418e+001
      vertex   9.764851e+000 7.467819e-001 1.504418e+001
      vertex   8.312439e+000 1.194792e+000 1.504418e+001
    endloop
  endfacet
  facet normal -5.633201e-001 -8.262388e-001 -7.952185e-015
    outer loop
      vertex   8.312439e+000 1.194792e+000 1.004418e+001
      vertex   8.312439e+000 1.194792e+000 1.504418e+001
      vertex   7.056606e+000 2.051004e+000 1.504418e+001
    endloop
  endfacet
  facet normal -7.818315e-001 -6.234898e-001 -6.483497e-015
    outer loop
      vertex   7.056606e+000 2.051004e+000 1.004418e+001
      vertex   7.056606e+000 2.051004e+000 1.504418e+001
      vertex   6.108940e+000 3.239340e+000 1.504418e+001
    endloop
  endfacet
  facet normal -9.308737e-001 -3.653410e-001 -4.638854e-015
    outer loop
      vertex   6.108940e+000 3.239340e+000 1.004418e+001
      vertex   6.108940e+000 3.239340e+000 1.504418e+001
      vertex   5.553644e+000 4.654211e+000 1.504418e+001
    endloop
  endfacet
  facet normal -9.972038e-001 -7.473009e-002 -2.382027e-015
    outer loop
      vertex   5.553644e+000 4.654211e+000 1.004418e+001
      vertex   5.553644e+000 4.654211e+000 1.504418e+001
      vertex   5.440059e+000 6.169900e+000 1.504418e+001
    endloop
  endfacet
  facet normal -9.749279e-001 2.225209e-001 8.645242e-017
    outer loop
      vertex   5.440059e+000 6.169900e+000 1.004418e+001
      vertex   5.440059e+000 6.169900e+000 1.504418e+001
      vertex   5.778277e+000 7.651731e+000 1.504418e+001
    endloop
  endfacet
  facet normal -8.660254e-001 5.000000e-001 2.547251e-015
    outer loop
      vertex   5.778277e+000 7.651731e+000 1.004418e+001
      vertex   5.778277e+000 7.651731e+000 1.504418e+001
      vertex   6.538246e+000 8.968036e+000 1.504418e+001
    endloop
  endfacet
  facet normal -6.801727e-001 7.330519e-001 4.781714e-015
    outer loop
      vertex   6.538246e+000 8.968036e+000 1.004418e+001
      vertex   6.538246e+000 8.968036e+000 1.504418e+001
      vertex   7.652440e+000 1.000186e+001 1.504418e+001
    endloop
  endfacet
  facet normal -4.338837e-001 9.009689e-001 6.591302e-015
    outer loop
      vertex   7.652440e+000 1.000186e+001 1.004418e+001
      vertex   7.652440e+000 1.000186e+001 1.504418e+001
      vertex   9.021858e+000 1.066133e+001 1.504418e+001
    endloop
  endfacet
  facet normal -1.490423e-001 9.888308e-001 7.463920e-015
    outer loop
      vertex   9.021858e+000 1.066133e+001 1.004418e+001
      vertex   9.021858e+000 1.066133e+001 1.504418e+001
      vertex   1.052482e+001 1.088787e+001 1.504418e+001
    endloop
  endfacet
  facet normal -1.490423e-001 9.888308e-001 7.465089e-015
    outer loop
      vertex   1.052482e+001 1.088787e+001 1.004418e+001
      vertex   9.021858e+000 1.066133e+001 1.004418e+001
      vertex   1.052482e+001 1.088787e+001 1.504418e+001
    endloop
  endfacet
  facet normal 6.801727e-001 7.330519e-001 7.198173e-015
    outer loop
      vertex   1.339720e+001 1.000186e+001 1.004418e+001
      vertex   1.451139e+001 8.968036e+000 1.504418e+001
      vertex   1.451139e+001 8.968036e+000 1.004418e+001
    endloop
  endfacet
  facet normal 8.660254e-001 5.000000e-001 5.316317e-015
    outer loop
      vertex   1.451139e+001 8.968036e+000 1.004418e+001
      vertex   1.527136e+001 7.651731e+000 1.504418e+001
      vertex   1.527136e+001 7.651731e+000 1.004418e+001
    endloop
  endfacet
  facet normal 9.749279e-001 2.225209e-001 3.896456e-015
    outer loop
      vertex   1.527136e+001 7.651731e+000 1.004418e+001
      vertex   1.560958e+001 6.169900e+000 1.504418e+001
      vertex   1.560958e+001 6.169900e+000 1.004418e+001
    endloop
  endfacet
  facet normal 9.972038e-001 -7.473009e-002 1.160752e-015
    outer loop
      vertex   1.560958e+001 6.169900e+000 1.004418e+001
      vertex   1.549600e+001 4.654211e+000 1.504418e+001
      vertex   1.549600e+001 4.654211e+000 1.004418e+001
    endloop
  endfacet
  facet normal 9.308737e-001 -3.653410e-001 -1.331726e-015
    outer loop
      vertex   1.549600e+001 4.654211e+000 1.004418e+001
      vertex   1.494070e+001 3.239340e+000 1.504418e+001
      vertex   1.494070e+001 3.239340e+000 1.004418e+001
    endloop
  endfacet
  facet normal 7.818315e-001 -6.234898e-001 -3.705874e-015
    outer loop
      vertex   1.494070e+001 3.239340e+000 1.004418e+001
      vertex   1.399303e+001 2.051004e+000 1.504418e+001
      vertex   1.399303e+001 2.051004e+000 1.004418e+001
    endloop
  endfacet
  facet normal 5.633201e-001 -8.262388e-001 -5.750739e-015
    outer loop
      vertex   1.399303e+001 2.051004e+000 1.004418e+001
      vertex   1.273720e+001 1.194792e+000 1.504418e+001
      vertex   1.273720e+001 1.194792e+000 1.004418e+001
    endloop
  endfacet
  facet normal 2.947552e-001 -9.555728e-001 -7.284626e-015
    outer loop
      vertex   1.273720e+001 1.194792e+000 1.004418e+001
      vertex   1.128479e+001 7.467819e-001 1.504418e+001
      vertex   1.128479e+001 7.467819e-001 1.004418e+001
    endloop
  endfacet
  facet normal -2.921757e-016 -1.000000e+000 -8.171241e-015
    outer loop
      vertex   1.128479e+001 7.467819e-001 1.004418e+001
      vertex   9.764851e+000 7.467819e-001 1.504418e+001
      vertex   9.764851e+000 7.467819e-001 1.004418e+001
    endloop
  endfacet
  facet normal -2.947552e-001 -9.555728e-001 -8.436525e-015
    outer loop
      vertex   9.764851e+000 7.467819e-001 1.004418e+001
      vertex   8.312439e+000 1.194792e+000 1.504418e+001
      vertex   8.312439e+000 1.194792e+000 1.004418e+001
    endloop
  endfacet
  facet normal -5.633201e-001 -8.262388e-001 -7.752054e-015
    outer loop
      vertex   8.312439e+000 1.194792e+000 1.004418e+001
      vertex   7.056606e+000 2.051004e+000 1.504418e+001
      vertex   7.056606e+000 2.051004e+000 1.004418e+001
    endloop
  endfacet
  facet normal -7.818315e-001 -6.234898e-001 -6.483497e-015
    outer loop
      vertex   7.056606e+000 2.051004e+000 1.004418e+001
      vertex   6.108940e+000 3.239340e+000 1.504418e+001
      vertex   6.108940e+000 3.239340e+000 1.004418e+001
    endloop
  endfacet
  facet normal -9.308737e-001 -3.653410e-001 -4.638854e-015
    outer loop
      vertex   6.108940e+000 3.239340e+000 1.004418e+001
      vertex   5.553644e+000 4.654211e+000 1.504418e+001
      vertex   5.553644e+000 4.654211e+000 1.004418e+001
    endloop
  endfacet
  facet normal -9.972038e-001 -7.473009e-002 -2.382027e-015
    outer loop
      vertex   5.553644e+000 4.654211e+000 1.004418e+001
      vertex   5.440059e+000 6.169900e+000 1.504418e+001
      vertex   5.440059e+000 6.169900e+000 1.004418e+001
    endloop
  endfacet
  facet normal -9.749279e-001 2.225209e-001 8.645242e-017
    outer loop
      vertex   5.440059e+000 6.169900e+000 1.004418e+001
      vertex   5.778277e+000 7.651731e+000 1.504418e+001
      vertex   5.778277e+000 7.651731e+000 1.004418e+001
    endloop
  endfacet
  facet normal -8.660254e-001 5.000000e-001 2.547251e-015
    outer loop
      vertex   5.778277e+000 7.651731e+000 1.004418e+001
      vertex   6.538246e+000 8.968036e+000 1.504418e+001
      vertex   6.538246e+000 8.968036e+000 1.004418e+001
    endloop
  endfacet
  facet normal -6.801727e-001 7.330519e-001 4.781714e-015
    outer loop
      vertex   6.538246e+000 8.968036e+000 1.004418e+001
      vertex   7.652440e+000 1.000186e+001 1.504418e+001
      vertex   7.652440e+000 1.000186e+001 1.004418e+001
    endloop
  endfacet
  facet normal -4.338837e-001 9.009689e-001 6.271213e-015
    outer loop
      vertex   7.652440e+000 1.000186e+001 1.004418e+001
      vertex   9.021858e+000 1.066133e+001 1.504418e+001
      vertex   9.021858e+000 1.066133e+001 1.004418e+001
    endloop
  endfacet
  facet normal -2.466219e-015 -8.520874e-015 1.000000e+000
    outer loop
      vertex   1.202778e+001 1.066133e+001 1.504418e+001
      vertex   1.052482e+001 1.088787e+001 1.504418e+001
      vertex   1.549600e+001 4.654211e+000 1.504418e+001
    endloop
  endfacet
  facet normal -6.346138e-016 -7.556928e-015 1.000000e+000
    outer loop
      vertex   1.339720e+001 1.000186e+001 1.504418e+001
      vertex   1.549600e+001 4.654211e+000 1.504418e+001
      vertex   1.451139e+001 8.968036e+000 1.504418e+001
    endloop
  endfacet
  facet normal -1.140518e-015 -7.755480e-015 1.000000e+000
    outer loop
      vertex   1.339720e+001 1.000186e+001 1.504418e+001
      vertex   1.202778e+001 1.066133e+001 1.504418e+001
      vertex   1.549600e+001 4.654211e+000 1.504418e+001
    endloop
  endfacet
  facet normal -2.283374e-015 -8.375060e-015 1.000000e+000
    outer loop
      vertex   1.052482e+001 1.088787e+001 1.504418e+001
      vertex   9.021858e+000 1.066133e+001 1.504418e+001
      vertex   1.549600e+001 4.654211e+000 1.504418e+001
    endloop
  endfacet
  facet normal -1.540826e-015 -7.574784e-015 1.000000e+000
    outer loop
      vertex   1.549600e+001 4.654211e+000 1.504418e+001
      vertex   9.021858e+000 1.066133e+001 1.504418e+001
      vertex   7.652440e+000 1.000186e+001 1.504418e+001
    endloop
  endfacet
  facet normal -1.962943e-015 -8.193916e-015 1.000000e+000
    outer loop
      vertex   6.538246e+000 8.968036e+000 1.504418e+001
      vertex   1.549600e+001 4.654211e+000 1.504418e+001
      vertex   7.652440e+000 1.000186e+001 1.504418e+001
    endloop
  endfacet
  facet normal -2.007893e-015 -8.287255e-015 1.000000e+000
    outer loop
      vertex   6.538246e+000 8.968036e+000 1.504418e+001
      vertex   5.778277e+000 7.651731e+000 1.504418e+001
      vertex   1.549600e+001 4.654211e+000 1.504418e+001
    endloop
  endfacet
  facet normal -1.560365e-015 -6.836406e-015 1.000000e+000
    outer loop
      vertex   1.549600e+001 4.654211e+000 1.504418e+001
      vertex   5.778277e+000 7.651731e+000 1.504418e+001
      vertex   5.440059e+000 6.169900e+000 1.504418e+001
    endloop
  endfacet
  facet normal -1.786656e-015 -8.337751e-015 1.000000e+000
    outer loop
      vertex   5.553644e+000 4.654211e+000 1.504418e+001
      vertex   1.549600e+001 4.654211e+000 1.504418e+001
      vertex   5.440059e+000 6.169900e+000 1.504418e+001
    endloop
  endfacet
  facet normal -1.786656e-015 -6.831730e-015 1.000000e+000
    outer loop
      vertex   5.553644e+000 4.654211e+000 1.504418e+001
      vertex   1.494070e+001 3.239340e+000 1.504418e+001
      vertex   1.549600e+001 4.654211e+000 1.504418e+001
    endloop
  endfacet
  facet normal -2.011328e-015 -8.322329e-015 1.000000e+000
    outer loop
      vertex   5.553644e+000 4.654211e+000 1.504418e+001
      vertex   6.108940e+000 3.239340e+000 1.504418e+001
      vertex   1.494070e+001 3.239340e+000 1.504418e+001
    endloop
  endfacet
  facet normal -2.011328e-015 -8.859809e-015 1.000000e+000
    outer loop
      vertex   1.494070e+001 3.239340e+000 1.504418e+001
      vertex   6.108940e+000 3.239340e+000 1.504418e+001
      vertex   1.399303e+001 2.051004e+000 1.504418e+001
    endloop
  endfacet
  facet normal -2.048728e-015 -9.107941e-015 1.000000e+000
    outer loop
      vertex   1.399303e+001 2.051004e+000 1.504418e+001
      vertex   6.108940e+000 3.239340e+000 1.504418e+001
      vertex   7.056606e+000 2.051004e+000 1.504418e+001
    endloop
  endfacet
  facet normal -1.605832e-015 -6.504662e-015 1.000000e+000
    outer loop
      vertex   1.273720e+001 1.194792e+000 1.504418e+001
      vertex   7.056606e+000 2.051004e+000 1.504418e+001
      vertex   8.312439e+000 1.194792e+000 1.504418e+001
    endloop
  endfacet
  facet normal -2.337406e-015 -1.154268e-014 1.000000e+000
    outer loop
      vertex   1.128479e+001 7.467819e-001 1.504418e+001
      vertex   8.312439e+000 1.194792e+000 1.504418e+001
      vertex   9.764851e+000 7.467819e-001 1.504418e+001
    endloop
  endfacet
  facet normal -1.605832e-015 -6.689005e-015 1.000000e+000
    outer loop
      vertex   1.128479e+001 7.467819e-001 1.504418e+001
      vertex   1.273720e+001 1.194792e+000 1.504418e+001
      vertex   8.312439e+000 1.194792e+000 1.504418e+001
    endloop
  endfacet
  facet normal -2.048728e-015 -9.443084e-015 1.000000e+000
    outer loop
      vertex   1.399303e+001 2.051004e+000 1.504418e+001
      vertex   7.056606e+000 2.051004e+000 1.504418e+001
      vertex   1.273720e+001 1.194792e+000 1.504418e+001
    endloop
  endfacet
  facet normal -3.335642e-015 -7.953888e-015 1.000000e+000
    outer loop
      vertex   1.560958e+001 6.169900e+000 1.504418e+001
      vertex   1.527136e+001 7.651731e+000 1.504418e+001
      vertex   1.549600e+001 4.654211e+000 1.504418e+001
    endloop
  endfacet
  facet normal -1.903636e-015 -7.846574e-015 1.000000e+000
    outer loop
      vertex   1.549600e+001 4.654211e+000 1.504418e+001
      vertex   1.527136e+001 7.651731e+000 1.504418e+001
      vertex   1.451139e+001 8.968036e+000 1.504418e+001
    endloop
  endfacet
  facet normal 2.743408e-016 1.000000e+000 7.939228e-015
    outer loop
      vertex   -2.375180e+000 -1.521115e+001 1.004418e+001
      vertex   -2.375180e+000 -1.521115e+001 1.080442e+002
      vertex   2.352482e+001 -1.521115e+001 1.004418e+001
    endloop
  endfacet
  facet normal 2.743408e-016 1.000000e+000 7.939228e-015
    outer loop
      vertex   2.352482e+001 -1.521115e+001 1.004418e+001
      vertex   -2.375180e+000 -1.521115e+001 1.080442e+002
      vertex   2.352482e+001 -1.521115e+001 1.080442e+002
    endloop
  endfacet
  facet normal -2.194727e-015 -7.786770e-015 1.000000e+000
    outer loop
      vertex   -2.375180e+000 -1.521115e+001 1.080442e+002
      vertex   -2.375180e+000 -2.251115e+001 1.080442e+002
      vertex   2.352482e+001 -1.521115e+001 1.080442e+002
    endloop
  endfacet
  facet normal -2.194727e-015 -7.786770e-015 1.000000e+000
    outer loop
      vertex   2.352482e+001 -1.521115e+001 1.080442e+002
      vertex   -2.375180e+000 -2.251115e+001 1.080442e+002
      vertex   2.352482e+001 -2.251115e+001 1.080442e+002
    endloop
  endfacet
  facet normal -2.743408e-016 -1.000000e+000 -7.927815e-015
    outer loop
      vertex   -2.375180e+000 -2.251115e+001 1.080442e+002
      vertex   -2.375180e+000 -2.251115e+001 4.417868e-002
      vertex   2.352482e+001 -2.251115e+001 1.080442e+002
    endloop
  endfacet
  facet normal -1.371704e-016 -1.000000e+000 -7.960710e-015
    outer loop
      vertex   2.352482e+001 -2.251115e+001 1.080442e+002
      vertex   -2.375180e+000 -2.251115e+001 4.417868e-002
      vertex   2.352482e+001 -2.251115e+001 4.417868e-002
    endloop
  endfacet
  facet normal -1.000000e+000 3.650048e-016 -1.776357e-015
    outer loop
      vertex   -2.375180e+000 -1.521115e+001 4.417868e-002
      vertex   -2.375180e+000 -2.251115e+001 4.417868e-002
      vertex   -2.375180e+000 -1.521115e+001 1.004418e+001
    endloop
  endfacet
  facet normal -1.000000e+000 4.325983e-016 -1.825700e-015
    outer loop
      vertex   -2.375180e+000 -1.521115e+001 1.004418e+001
      vertex   -2.375180e+000 -2.251115e+001 4.417868e-002
      vertex   -2.375180e+000 -2.251115e+001 1.080442e+002
    endloop
  endfacet
  facet normal -1.000000e+000 2.433366e-016 -1.839798e-015
    outer loop
      vertex   -2.375180e+000 -1.521115e+001 1.080442e+002
      vertex   -2.375180e+000 -1.521115e+001 1.004418e+001
      vertex   -2.375180e+000 -2.251115e+001 1.080442e+002
    endloop
  endfacet
  facet normal 0.000000e+000 -1.000000e+000 -7.815970e-015
    outer loop
      vertex   -2.375180e+000 -1.521115e+001 4.417868e-002
      vertex   -2.375180e+000 -1.521115e+001 1.004418e+001
      vertex   -2.475180e+000 -1.521115e+001 4.417868e-002
    endloop
  endfacet
  facet normal -0.000000e+000 -1.000000e+000 -7.815970e-015
    outer loop
      vertex   -2.475180e+000 -1.521115e+001 4.417868e-002
      vertex   -2.375180e+000 -1.521115e+001 1.004418e+001
      vertex   -2.475180e+000 -1.521115e+001 1.004418e+001
    endloop
  endfacet
  facet normal -1.000000e+000 2.804774e-016 -1.820766e-015
    outer loop
      vertex   -2.475180e+000 2.278885e+001 1.004418e+001
      vertex   -2.475180e+000 2.278885e+001 4.417868e-002
      vertex   -2.475180e+000 -1.521115e+001 1.004418e+001
    endloop
  endfacet
  facet normal -1.000000e+000 2.804774e-016 -1.820766e-015
    outer loop
      vertex   -2.475180e+000 -1.521115e+001 1.004418e+001
      vertex   -2.475180e+000 2.278885e+001 4.417868e-002
      vertex   -2.475180e+000 -1.521115e+001 4.417868e-002
    endloop
  endfacet
  facet normal 4.099285e-016 1.000000e+000 8.171241e-015
    outer loop
      vertex   2.352482e+001 2.278885e+001 1.004418e+001
      vertex   2.352482e+001 2.278885e+001 4.417868e-002
      vertex   -2.475180e+000 2.278885e+001 1.004418e+001
    endloop
  endfacet
  facet normal 2.732857e-016 1.000000e+000 7.815970e-015
    outer loop
      vertex   -2.475180e+000 2.278885e+001 1.004418e+001
      vertex   2.352482e+001 2.278885e+001 4.417868e-002
      vertex   -2.475180e+000 2.278885e+001 4.417868e-002
    endloop
  endfacet
  facet normal 1.000000e+000 -3.739699e-016 1.421085e-015
    outer loop
      vertex   2.352482e+001 2.278885e+001 1.004418e+001
      vertex   2.352482e+001 -1.521115e+001 1.004418e+001
      vertex   2.352482e+001 2.278885e+001 4.417868e-002
    endloop
  endfacet
  facet normal 1.000000e+000 -2.352791e-016 1.948111e-015
    outer loop
      vertex   2.352482e+001 2.278885e+001 4.417868e-002
      vertex   2.352482e+001 -1.521115e+001 1.004418e+001
      vertex   2.352482e+001 -2.251115e+001 4.417868e-002
    endloop
  endfacet
  facet normal 1.000000e+000 -1.351870e-016 1.875043e-015
    outer loop
      vertex   2.352482e+001 -2.251115e+001 4.417868e-002
      vertex   2.352482e+001 -1.521115e+001 1.004418e+001
      vertex   2.352482e+001 -2.251115e+001 1.080442e+002
    endloop
  endfacet
  facet normal 1.000000e+000 -1.354979e-029 1.885113e-015
    outer loop
      vertex   2.352482e+001 -2.251115e+001 1.080442e+002
      vertex   2.352482e+001 -1.521115e+001 1.004418e+001
      vertex   2.352482e+001 -1.521115e+001 1.080442e+002
    endloop
  endfacet
  facet normal -2.289746e-015 -7.350054e-015 1.000000e+000
    outer loop
      vertex   1.202778e+001 1.066133e+001 1.004418e+001
      vertex   2.352482e+001 2.278885e+001 1.004418e+001
      vertex   1.052482e+001 1.088787e+001 1.004418e+001
    endloop
  endfacet
  facet normal -1.366687e-015 -8.225126e-015 1.000000e+000
    outer loop
      vertex   1.202778e+001 1.066133e+001 1.004418e+001
      vertex   1.339720e+001 1.000186e+001 1.004418e+001
      vertex   2.352482e+001 2.278885e+001 1.004418e+001
    endloop
  endfacet
  facet normal -1.302086e-015 -8.276292e-015 1.000000e+000
    outer loop
      vertex   2.352482e+001 2.278885e+001 1.004418e+001
      vertex   1.339720e+001 1.000186e+001 1.004418e+001
      vertex   1.451139e+001 8.968036e+000 1.004418e+001
    endloop
  endfacet
  facet normal -1.934062e-015 -7.864140e-015 1.000000e+000
    outer loop
      vertex   1.527136e+001 7.651731e+000 1.004418e+001
      vertex   2.352482e+001 2.278885e+001 1.004418e+001
      vertex   1.451139e+001 8.968036e+000 1.004418e+001
    endloop
  endfacet
  facet normal -2.231614e-015 -7.701901e-015 1.000000e+000
    outer loop
      vertex   1.527136e+001 7.651731e+000 1.004418e+001
      vertex   1.560958e+001 6.169900e+000 1.004418e+001
      vertex   2.352482e+001 2.278885e+001 1.004418e+001
    endloop
  endfacet
  facet normal -1.815444e-015 -7.900113e-015 1.000000e+000
    outer loop
      vertex   2.352482e+001 2.278885e+001 1.004418e+001
      vertex   1.560958e+001 6.169900e+000 1.004418e+001
      vertex   2.352482e+001 -1.521115e+001 1.004418e+001
    endloop
  endfacet
  facet normal -2.192175e-015 -8.039579e-015 1.000000e+000
    outer loop
      vertex   2.352482e+001 -1.521115e+001 1.004418e+001
      vertex   1.560958e+001 6.169900e+000 1.004418e+001
      vertex   1.549600e+001 4.654211e+000 1.004418e+001
    endloop
  endfacet
  facet normal -4.761994e-016 -7.346046e-015 1.000000e+000
    outer loop
      vertex   1.494070e+001 3.239340e+000 1.004418e+001
      vertex   2.352482e+001 -1.521115e+001 1.004418e+001
      vertex   1.549600e+001 4.654211e+000 1.004418e+001
    endloop
  endfacet
  facet normal -2.644515e-015 -8.354859e-015 1.000000e+000
    outer loop
      vertex   1.494070e+001 3.239340e+000 1.004418e+001
      vertex   1.399303e+001 2.051004e+000 1.004418e+001
      vertex   2.352482e+001 -1.521115e+001 1.004418e+001
    endloop
  endfacet
  facet normal -2.750694e-015 -8.413489e-015 1.000000e+000
    outer loop
      vertex   2.352482e+001 -1.521115e+001 1.004418e+001
      vertex   1.399303e+001 2.051004e+000 1.004418e+001
      vertex   1.273720e+001 1.194792e+000 1.004418e+001
    endloop
  endfacet
  facet normal -1.356647e-015 -7.496842e-015 1.000000e+000
    outer loop
      vertex   1.128479e+001 7.467819e-001 1.004418e+001
      vertex   2.352482e+001 -1.521115e+001 1.004418e+001
      vertex   1.273720e+001 1.194792e+000 1.004418e+001
    endloop
  endfacet
  facet normal -1.851801e-015 -7.876634e-015 1.000000e+000
    outer loop
      vertex   1.128479e+001 7.467819e-001 1.004418e+001
      vertex   -2.375180e+000 -1.521115e+001 1.004418e+001
      vertex   2.352482e+001 -1.521115e+001 1.004418e+001
    endloop
  endfacet
  facet normal -2.337406e-015 -7.460957e-015 1.000000e+000
    outer loop
      vertex   1.128479e+001 7.467819e-001 1.004418e+001
      vertex   9.764851e+000 7.467819e-001 1.004418e+001
      vertex   -2.375180e+000 -1.521115e+001 1.004418e+001
    endloop
  endfacet
  facet normal -1.317657e-015 -8.236733e-015 1.000000e+000
    outer loop
      vertex   -2.375180e+000 -1.521115e+001 1.004418e+001
      vertex   9.764851e+000 7.467819e-001 1.004418e+001
      vertex   8.312439e+000 1.194792e+000 1.004418e+001
    endloop
  endfacet
  facet normal -2.334921e-015 -7.574038e-015 1.000000e+000
    outer loop
      vertex   7.056606e+000 2.051004e+000 1.004418e+001
      vertex   -2.375180e+000 -1.521115e+001 1.004418e+001
      vertex   8.312439e+000 1.194792e+000 1.004418e+001
    endloop
  endfacet
  facet normal -1.023671e-015 -8.290486e-015 1.000000e+000
    outer loop
      vertex   7.056606e+000 2.051004e+000 1.004418e+001
      vertex   6.108940e+000 3.239340e+000 1.004418e+001
      vertex   -2.375180e+000 -1.521115e+001 1.004418e+001
    endloop
  endfacet
  facet normal -1.441109e-015 -8.098535e-015 1.000000e+000
    outer loop
      vertex   -2.375180e+000 -1.521115e+001 1.004418e+001
      vertex   6.108940e+000 3.239340e+000 1.004418e+001
      vertex   5.553644e+000 4.654211e+000 1.004418e+001
    endloop
  endfacet
  facet normal -9.807148e-016 -8.277354e-015 1.000000e+000
    outer loop
      vertex   -2.475180e+000 -1.521115e+001 1.004418e+001
      vertex   5.553644e+000 4.654211e+000 1.004418e+001
      vertex   5.440059e+000 6.169900e+000 1.004418e+001
    endloop
  endfacet
  facet normal -1.958476e-016 -7.147848e-015 1.000000e+000
    outer loop
      vertex   -2.475180e+000 2.278885e+001 1.004418e+001
      vertex   5.440059e+000 6.169900e+000 1.004418e+001
      vertex   5.778277e+000 7.651731e+000 1.004418e+001
    endloop
  endfacet
  facet normal -2.142755e-015 -8.209392e-015 1.000000e+000
    outer loop
      vertex   6.538246e+000 8.968036e+000 1.004418e+001
      vertex   -2.475180e+000 2.278885e+001 1.004418e+001
      vertex   5.778277e+000 7.651731e+000 1.004418e+001
    endloop
  endfacet
  facet normal -2.021784e-015 -8.130500e-015 1.000000e+000
    outer loop
      vertex   6.538246e+000 8.968036e+000 1.004418e+001
      vertex   7.652440e+000 1.000186e+001 1.004418e+001
      vertex   -2.475180e+000 2.278885e+001 1.004418e+001
    endloop
  endfacet
  facet normal -1.479894e-015 -7.701309e-015 1.000000e+000
    outer loop
      vertex   -2.475180e+000 2.278885e+001 1.004418e+001
      vertex   7.652440e+000 1.000186e+001 1.004418e+001
      vertex   9.021858e+000 1.066133e+001 1.004418e+001
    endloop
  endfacet
  facet normal -2.271774e-015 -8.452021e-015 1.000000e+000
    outer loop
      vertex   1.052482e+001 1.088787e+001 1.004418e+001
      vertex   -2.475180e+000 2.278885e+001 1.004418e+001
      vertex   9.021858e+000 1.066133e+001 1.004418e+001
    endloop
  endfacet
  facet normal -1.776357e-015 -7.910853e-015 1.000000e+000
    outer loop
      vertex   1.052482e+001 1.088787e+001 1.004418e+001
      vertex   2.352482e+001 2.278885e+001 1.004418e+001
      vertex   -2.475180e+000 2.278885e+001 1.004418e+001
    endloop
  endfacet
  facet normal 0.000000e+000 -8.673722e-015 1.000000e+000
    outer loop
      vertex   -2.375180e+000 -1.521115e+001 1.004418e+001
      vertex   5.553644e+000 4.654211e+000 1.004418e+001
      vertex   -2.475180e+000 -1.521115e+001 1.004418e+001
    endloop
  endfacet
  facet normal -1.873463e-015 -7.946860e-015 1.000000e+000
    outer loop
      vertex   -2.475180e+000 -1.521115e+001 1.004418e+001
      vertex   5.440059e+000 6.169900e+000 1.004418e+001
      vertex   -2.475180e+000 2.278885e+001 1.004418e+001
    endloop
  endfacet
  facet normal 1.832135e-015 7.932142e-015 -1.000000e+000
    outer loop
      vertex   -2.475180e+000 2.278885e+001 4.417868e-002
      vertex   2.352482e+001 2.278885e+001 4.417868e-002
      vertex   -2.375180e+000 -1.521115e+001 4.417868e-002
    endloop
  endfacet
  facet normal 1.873501e-015 7.932251e-015 -1.000000e+000
    outer loop
      vertex   -2.475180e+000 -1.521115e+001 4.417868e-002
      vertex   -2.475180e+000 2.278885e+001 4.417868e-002
      vertex   -2.375180e+000 -1.521115e+001 4.417868e-002
    endloop
  endfacet
  facet normal 1.831975e-015 7.932201e-015 -1.000000e+000
    outer loop
      vertex   -2.375180e+000 -2.251115e+001 4.417868e-002
      vertex   -2.375180e+000 -1.521115e+001 4.417868e-002
      vertex   2.352482e+001 -2.251115e+001 4.417868e-002
    endloop
  endfacet
  facet normal 1.831987e-015 7.932243e-015 -1.000000e+000
    outer loop
      vertex   2.352482e+001 -2.251115e+001 4.417868e-002
      vertex   -2.375180e+000 -1.521115e+001 4.417868e-002
      vertex   2.352482e+001 2.278885e+001 4.417868e-002
    endloop
  endfacet
endsolid
