solid PRT0002
  facet normal 0.000000e+00 -1.000000e+00 0.000000e+00
    outer loop
      vertex 1.524000e+03 0.000000e+00 -6.096000e+02
      vertex 1.524000e+03 0.000000e+00 0.000000e+00
      vertex 0.000000e+00 0.000000e+00 0.000000e+00
    endloop
  endfacet
  facet normal 0.000000e+00 0.000000e+00 1.000000e+00
    outer loop
      vertex 0.000000e+00 6.032500e+01 0.000000e+00
      vertex 0.000000e+00 0.000000e+00 0.000000e+00
      vertex 1.524000e+03 0.000000e+00 0.000000e+00
    endloop
  endfacet
  facet normal 0.000000e+00 -1.000000e+00 0.000000e+00
    outer loop
      vertex 0.000000e+00 0.000000e+00 -6.096000e+02
      vertex 1.524000e+03 0.000000e+00 -6.096000e+02
      vertex 0.000000e+00 0.000000e+00 0.000000e+00
    endloop
  endfacet
  facet normal -1.000000e+00 0.000000e+00 0.000000e+00
    outer loop
      vertex 0.000000e+00 6.032500e+01 -6.096000e+02
      vertex 0.000000e+00 0.000000e+00 -6.096000e+02
      vertex 0.000000e+00 0.000000e+00 0.000000e+00
    endloop
  endfacet
  facet normal -1.000000e+00 0.000000e+00 0.000000e+00
    outer loop
      vertex 0.000000e+00 6.032500e+01 -6.096000e+02
      vertex 0.000000e+00 0.000000e+00 0.000000e+00
      vertex 0.000000e+00 6.032500e+01 0.000000e+00
    endloop
  endfacet
  facet normal 1.000000e+00 0.000000e+00 0.000000e+00
    outer loop
      vertex 1.524000e+03 6.032500e+01 0.000000e+00
      vertex 1.524000e+03 0.000000e+00 0.000000e+00
      vertex 1.524000e+03 0.000000e+00 -6.096000e+02
    endloop
  endfacet
  facet normal 0.000000e+00 0.000000e+00 1.000000e+00
    outer loop
      vertex 1.524000e+03 6.032500e+01 0.000000e+00
      vertex 0.000000e+00 6.032500e+01 0.000000e+00
      vertex 1.524000e+03 0.000000e+00 0.000000e+00
    endloop
  endfacet
  facet normal 0.000000e+00 0.000000e+00 -1.000000e+00
    outer loop
      vertex 1.524000e+03 6.032500e+01 -6.096000e+02
      vertex 1.524000e+03 0.000000e+00 -6.096000e+02
      vertex 0.000000e+00 0.000000e+00 -6.096000e+02
    endloop
  endfacet
  facet normal 1.000000e+00 0.000000e+00 0.000000e+00
    outer loop
      vertex 1.524000e+03 6.032500e+01 0.000000e+00
      vertex 1.524000e+03 0.000000e+00 -6.096000e+02
      vertex 1.524000e+03 6.032500e+01 -6.096000e+02
    endloop
  endfacet
  facet normal 0.000000e+00 0.000000e+00 -1.000000e+00
    outer loop
      vertex 1.524000e+03 6.032500e+01 -6.096000e+02
      vertex 0.000000e+00 0.000000e+00 -6.096000e+02
      vertex 0.000000e+00 6.032500e+01 -6.096000e+02
    endloop
  endfacet
  facet normal 0.000000e+00 1.000000e+00 0.000000e+00
    outer loop
      vertex 1.524000e+03 6.032500e+01 0.000000e+00
      vertex 0.000000e+00 6.032500e+01 -6.096000e+02
      vertex 0.000000e+00 6.032500e+01 0.000000e+00
    endloop
  endfacet
  facet normal 0.000000e+00 1.000000e+00 0.000000e+00
    outer loop
      vertex 1.524000e+03 6.032500e+01 0.000000e+00
      vertex 1.524000e+03 6.032500e+01 -6.096000e+02
      vertex 0.000000e+00 6.032500e+01 -6.096000e+02
    endloop
  endfacet
endsolid PRT0002
