solid ascii
  facet normal 0.000000e+000 1.000000e+000 0.000000e+000
    outer loop
      vertex   -4.500000e+001 0.000000e+000 5.000000e+002
      vertex   -4.500000e+001 0.000000e+000 0.000000e+000
      vertex   -5.000000e+001 0.000000e+000 5.000000e+002
    endloop
  endfacet
  facet normal 0.000000e+000 1.000000e+000 0.000000e+000
    outer loop
      vertex   -5.000000e+001 0.000000e+000 5.000000e+002
      vertex   -4.500000e+001 0.000000e+000 0.000000e+000
      vertex   -5.000000e+001 0.000000e+000 0.000000e+000
    endloop
  endfacet
  facet normal 9.972038e-001 7.473009e-002 -0.000000e+000
    outer loop
      vertex   -4.500000e+001 0.000000e+000 0.000000e+000
      vertex   -4.500000e+001 0.000000e+000 5.000000e+002
      vertex   -4.449739e+001 -6.706902e+000 2.500000e+002
    endloop
  endfacet
  facet normal 9.555709e-001 2.947546e-001 -1.993801e-003
    outer loop
      vertex   -4.317718e+001 -1.267797e+001 0.000000e+000
      vertex   -4.449739e+001 -6.706902e+000 2.500000e+002
      vertex   -4.054360e+001 -1.952477e+001 2.500000e+002
    endloop
  endfacet
  facet normal 8.262372e-001 5.633190e-001 -1.943866e-003
    outer loop
      vertex   -3.785641e+001 -2.432884e+001 0.000000e+000
      vertex   -4.054360e+001 -1.952477e+001 2.500000e+002
      vertex   -3.298733e+001 -3.060777e+001 2.500000e+002
    endloop
  endfacet
  facet normal 6.234887e-001 7.818301e-001 -1.860652e-003
    outer loop
      vertex   -2.946873e+001 -3.400873e+001 0.000000e+000
      vertex   -3.298733e+001 -3.060777e+001 2.500000e+002
      vertex   -2.250000e+001 -3.897114e+001 2.500000e+002
    endloop
  endfacet
  facet normal 3.653405e-001 9.308723e-001 -1.744173e-003
    outer loop
      vertex   -1.869368e+001 -4.093344e+001 0.000000e+000
      vertex   -2.250000e+001 -3.897114e+001 2.500000e+002
      vertex   -1.001344e+001 -4.387176e+001 2.500000e+002
    endloop
  endfacet
  facet normal 7.473000e-002 9.972025e-001 -1.594452e-003
    outer loop
      vertex   -6.404168e+000 -4.454196e+001 0.000000e+000
      vertex   -1.001344e+001 -4.387176e+001 2.500000e+002
      vertex   3.362854e+000 -4.487417e+001 2.500000e+002
    endloop
  endfacet
  facet normal -2.225207e-001 9.749269e-001 -1.411515e-003
    outer loop
      vertex   6.404168e+000 -4.454196e+001 0.000000e+000
      vertex   3.362854e+000 -4.487417e+001 2.500000e+002
      vertex   1.644035e+001 -4.188932e+001 2.500000e+002
    endloop
  endfacet
  facet normal -4.999996e-001 8.660248e-001 -1.195396e-003
    outer loop
      vertex   1.869368e+001 -4.093344e+001 0.000000e+000
      vertex   1.644035e+001 -4.188932e+001 2.500000e+002
      vertex   2.805704e+001 -3.518242e+001 2.500000e+002
    endloop
  endfacet
  facet normal -7.330515e-001 6.801724e-001 -9.461368e-004
    outer loop
      vertex   2.946873e+001 -3.400873e+001 0.000000e+000
      vertex   2.805704e+001 -3.518242e+001 2.500000e+002
      vertex   3.718074e+001 -2.534940e+001 2.500000e+002
    endloop
  endfacet
  facet normal -9.009687e-001 4.338836e-001 -6.637816e-004
    outer loop
      vertex   3.785641e+001 -2.432884e+001 0.000000e+000
      vertex   3.718074e+001 -2.534940e+001 2.500000e+002
      vertex   4.300078e+001 -1.326398e+001 2.500000e+002
    endloop
  endfacet
  facet normal -9.898214e-001 1.423148e-001 -3.648518e-004
    outer loop
      vertex   4.317718e+001 -1.267797e+001 0.000000e+000
      vertex   4.300078e+001 -1.326398e+001 2.500000e+002
      vertex   4.500000e+001 0.000000e+000 0.000000e+000
    endloop
  endfacet
  facet normal -9.096319e-001 4.154150e-001 3.318985e-004
    outer loop
      vertex   4.317718e+001 -1.267797e+001 0.000000e+000
      vertex   3.785641e+001 -2.432884e+001 0.000000e+000
      vertex   4.300078e+001 -1.326398e+001 2.500000e+002
    endloop
  endfacet
  facet normal 9.096305e-001 4.154143e-001 -1.794685e-003
    outer loop
      vertex   -3.785641e+001 -2.432884e+001 5.000000e+002
      vertex   -4.054360e+001 -1.952477e+001 2.500000e+002
      vertex   -4.317718e+001 -1.267797e+001 5.000000e+002
    endloop
  endfacet
  facet normal 8.262372e-001 5.633190e-001 1.943866e-003
    outer loop
      vertex   -3.785641e+001 -2.432884e+001 5.000000e+002
      vertex   -3.298733e+001 -3.060777e+001 2.500000e+002
      vertex   -4.054360e+001 -1.952477e+001 2.500000e+002
    endloop
  endfacet
  facet normal 7.557484e-001 6.548598e-001 -1.728108e-003
    outer loop
      vertex   -3.785641e+001 -2.432884e+001 5.000000e+002
      vertex   -2.946873e+001 -3.400873e+001 5.000000e+002
      vertex   -3.298733e+001 -3.060777e+001 2.500000e+002
    endloop
  endfacet
  facet normal 6.234887e-001 7.818301e-001 1.860652e-003
    outer loop
      vertex   -3.298733e+001 -3.060777e+001 2.500000e+002
      vertex   -2.946873e+001 -3.400873e+001 5.000000e+002
      vertex   -2.250000e+001 -3.897114e+001 2.500000e+002
    endloop
  endfacet
  facet normal 5.406401e-001 8.412524e-001 -1.628259e-003
    outer loop
      vertex   -2.250000e+001 -3.897114e+001 2.500000e+002
      vertex   -2.946873e+001 -3.400873e+001 5.000000e+002
      vertex   -1.869368e+001 -4.093344e+001 5.000000e+002
    endloop
  endfacet
  facet normal 2.817322e-001 9.594919e-001 -1.495156e-003
    outer loop
      vertex   -1.001344e+001 -4.387176e+001 2.500000e+002
      vertex   -1.869368e+001 -4.093344e+001 5.000000e+002
      vertex   -6.404168e+000 -4.454196e+001 5.000000e+002
    endloop
  endfacet
  facet normal 5.547498e-016 9.999991e-001 -1.328823e-003
    outer loop
      vertex   3.362854e+000 -4.487417e+001 2.500000e+002
      vertex   -6.404168e+000 -4.454196e+001 5.000000e+002
      vertex   6.404168e+000 -4.454196e+001 5.000000e+002
    endloop
  endfacet
  facet normal -2.817324e-001 9.594924e-001 -1.129291e-003
    outer loop
      vertex   1.644035e+001 -4.188932e+001 2.500000e+002
      vertex   6.404168e+000 -4.454196e+001 5.000000e+002
      vertex   1.869368e+001 -4.093344e+001 5.000000e+002
    endloop
  endfacet
  facet normal -5.406406e-001 8.412532e-001 -8.965960e-004
    outer loop
      vertex   2.805704e+001 -3.518242e+001 2.500000e+002
      vertex   1.869368e+001 -4.093344e+001 5.000000e+002
      vertex   2.946873e+001 -3.400873e+001 5.000000e+002
    endloop
  endfacet
  facet normal -7.557494e-001 6.548606e-001 -6.307823e-004
    outer loop
      vertex   3.718074e+001 -2.534940e+001 2.500000e+002
      vertex   2.946873e+001 -3.400873e+001 5.000000e+002
      vertex   3.785641e+001 -2.432884e+001 5.000000e+002
    endloop
  endfacet
  facet normal -9.096319e-001 4.154150e-001 -3.318985e-004
    outer loop
      vertex   4.300078e+001 -1.326398e+001 2.500000e+002
      vertex   3.785641e+001 -2.432884e+001 5.000000e+002
      vertex   4.317718e+001 -1.267797e+001 5.000000e+002
    endloop
  endfacet
  facet normal -9.898214e-001 1.423148e-001 0.000000e+000
    outer loop
      vertex   4.500000e+001 0.000000e+000 0.000000e+000
      vertex   4.317718e+001 -1.267797e+001 5.000000e+002
      vertex   4.500000e+001 0.000000e+000 5.000000e+002
    endloop
  endfacet
  facet normal -9.878858e-001 1.551823e-001 3.333237e-004
    outer loop
      vertex   4.500000e+001 0.000000e+000 0.000000e+000
      vertex   4.300078e+001 -1.326398e+001 2.500000e+002
      vertex   4.317718e+001 -1.267797e+001 5.000000e+002
    endloop
  endfacet
  facet normal 3.653405e-001 9.308723e-001 1.744173e-003
    outer loop
      vertex   -2.250000e+001 -3.897114e+001 2.500000e+002
      vertex   -1.869368e+001 -4.093344e+001 5.000000e+002
      vertex   -1.001344e+001 -4.387176e+001 2.500000e+002
    endloop
  endfacet
  facet normal 7.473000e-002 9.972025e-001 1.594452e-003
    outer loop
      vertex   -1.001344e+001 -4.387176e+001 2.500000e+002
      vertex   -6.404168e+000 -4.454196e+001 5.000000e+002
      vertex   3.362854e+000 -4.487417e+001 2.500000e+002
    endloop
  endfacet
  facet normal -2.225207e-001 9.749269e-001 1.411515e-003
    outer loop
      vertex   3.362854e+000 -4.487417e+001 2.500000e+002
      vertex   6.404168e+000 -4.454196e+001 5.000000e+002
      vertex   1.644035e+001 -4.188932e+001 2.500000e+002
    endloop
  endfacet
  facet normal -4.999996e-001 8.660248e-001 1.195396e-003
    outer loop
      vertex   1.644035e+001 -4.188932e+001 2.500000e+002
      vertex   1.869368e+001 -4.093344e+001 5.000000e+002
      vertex   2.805704e+001 -3.518242e+001 2.500000e+002
    endloop
  endfacet
  facet normal -7.330515e-001 6.801724e-001 9.461368e-004
    outer loop
      vertex   2.805704e+001 -3.518242e+001 2.500000e+002
      vertex   2.946873e+001 -3.400873e+001 5.000000e+002
      vertex   3.718074e+001 -2.534940e+001 2.500000e+002
    endloop
  endfacet
  facet normal -9.009687e-001 4.338836e-001 6.637816e-004
    outer loop
      vertex   3.718074e+001 -2.534940e+001 2.500000e+002
      vertex   3.785641e+001 -2.432884e+001 5.000000e+002
      vertex   4.300078e+001 -1.326398e+001 2.500000e+002
    endloop
  endfacet
  facet normal -7.557494e-001 6.548606e-001 6.307823e-004
    outer loop
      vertex   3.785641e+001 -2.432884e+001 0.000000e+000
      vertex   2.946873e+001 -3.400873e+001 0.000000e+000
      vertex   3.718074e+001 -2.534940e+001 2.500000e+002
    endloop
  endfacet
  facet normal -5.406406e-001 8.412532e-001 8.965960e-004
    outer loop
      vertex   2.946873e+001 -3.400873e+001 0.000000e+000
      vertex   1.869368e+001 -4.093344e+001 0.000000e+000
      vertex   2.805704e+001 -3.518242e+001 2.500000e+002
    endloop
  endfacet
  facet normal -2.817324e-001 9.594924e-001 1.129291e-003
    outer loop
      vertex   1.869368e+001 -4.093344e+001 0.000000e+000
      vertex   6.404168e+000 -4.454196e+001 0.000000e+000
      vertex   1.644035e+001 -4.188932e+001 2.500000e+002
    endloop
  endfacet
  facet normal 5.547498e-016 9.999991e-001 1.328823e-003
    outer loop
      vertex   6.404168e+000 -4.454196e+001 0.000000e+000
      vertex   -6.404168e+000 -4.454196e+001 0.000000e+000
      vertex   3.362854e+000 -4.487417e+001 2.500000e+002
    endloop
  endfacet
  facet normal 2.817322e-001 9.594919e-001 1.495156e-003
    outer loop
      vertex   -6.404168e+000 -4.454196e+001 0.000000e+000
      vertex   -1.869368e+001 -4.093344e+001 0.000000e+000
      vertex   -1.001344e+001 -4.387176e+001 2.500000e+002
    endloop
  endfacet
  facet normal 5.406401e-001 8.412524e-001 1.628259e-003
    outer loop
      vertex   -1.869368e+001 -4.093344e+001 0.000000e+000
      vertex   -2.946873e+001 -3.400873e+001 0.000000e+000
      vertex   -2.250000e+001 -3.897114e+001 2.500000e+002
    endloop
  endfacet
  facet normal 7.557484e-001 6.548598e-001 1.728108e-003
    outer loop
      vertex   -2.946873e+001 -3.400873e+001 0.000000e+000
      vertex   -3.785641e+001 -2.432884e+001 0.000000e+000
      vertex   -3.298733e+001 -3.060777e+001 2.500000e+002
    endloop
  endfacet
  facet normal 9.096305e-001 4.154143e-001 1.794685e-003
    outer loop
      vertex   -3.785641e+001 -2.432884e+001 0.000000e+000
      vertex   -4.317718e+001 -1.267797e+001 0.000000e+000
      vertex   -4.054360e+001 -1.952477e+001 2.500000e+002
    endloop
  endfacet
  facet normal 9.898198e-001 1.423146e-001 1.827976e-003
    outer loop
      vertex   -4.317718e+001 -1.267797e+001 0.000000e+000
      vertex   -4.500000e+001 0.000000e+000 0.000000e+000
      vertex   -4.449739e+001 -6.706902e+000 2.500000e+002
    endloop
  endfacet
  facet normal 9.898198e-001 1.423146e-001 -1.827976e-003
    outer loop
      vertex   -4.500000e+001 0.000000e+000 5.000000e+002
      vertex   -4.317718e+001 -1.267797e+001 5.000000e+002
      vertex   -4.449739e+001 -6.706902e+000 2.500000e+002
    endloop
  endfacet
  facet normal 9.555709e-001 2.947546e-001 1.993801e-003
    outer loop
      vertex   -4.449739e+001 -6.706902e+000 2.500000e+002
      vertex   -4.317718e+001 -1.267797e+001 5.000000e+002
      vertex   -4.054360e+001 -1.952477e+001 2.500000e+002
    endloop
  endfacet
  facet normal 0.000000e+000 1.000000e+000 0.000000e+000
    outer loop
      vertex   5.000000e+001 0.000000e+000 5.000000e+002
      vertex   5.000000e+001 0.000000e+000 0.000000e+000
      vertex   4.500000e+001 0.000000e+000 5.000000e+002
    endloop
  endfacet
  facet normal 0.000000e+000 1.000000e+000 0.000000e+000
    outer loop
      vertex   4.500000e+001 0.000000e+000 5.000000e+002
      vertex   5.000000e+001 0.000000e+000 0.000000e+000
      vertex   4.500000e+001 0.000000e+000 0.000000e+000
    endloop
  endfacet
  facet normal 9.898214e-001 -1.423148e-001 0.000000e+000
    outer loop
      vertex   5.000000e+001 0.000000e+000 0.000000e+000
      vertex   5.000000e+001 0.000000e+000 5.000000e+002
      vertex   4.797465e+001 -1.408663e+001 2.500000e+002
    endloop
  endfacet
  facet normal 9.096320e-001 -4.154150e-001 -2.951701e-018
    outer loop
      vertex   4.797465e+001 -1.408663e+001 0.000000e+000
      vertex   4.797465e+001 -1.408663e+001 2.500000e+002
      vertex   4.206268e+001 -2.703204e+001 0.000000e+000
    endloop
  endfacet
  facet normal 9.898214e-001 -1.423148e-001 -9.985505e-019
    outer loop
      vertex   4.797465e+001 -1.408663e+001 0.000000e+000
      vertex   5.000000e+001 0.000000e+000 0.000000e+000
      vertex   4.797465e+001 -1.408663e+001 2.500000e+002
    endloop
  endfacet
  facet normal 9.096320e-001 -4.154150e-001 5.903402e-018
    outer loop
      vertex   4.206268e+001 -2.703204e+001 5.000000e+002
      vertex   4.206268e+001 -2.703204e+001 2.500000e+002
      vertex   4.797465e+001 -1.408663e+001 5.000000e+002
    endloop
  endfacet
  facet normal 7.557496e-001 -6.548607e-001 7.988404e-018
    outer loop
      vertex   4.206268e+001 -2.703204e+001 5.000000e+002
      vertex   3.274304e+001 -3.778748e+001 2.500000e+002
      vertex   4.206268e+001 -2.703204e+001 2.500000e+002
    endloop
  endfacet
  facet normal 7.557496e-001 -6.548607e-001 0.000000e+000
    outer loop
      vertex   4.206268e+001 -2.703204e+001 5.000000e+002
      vertex   3.274304e+001 -3.778748e+001 5.000000e+002
      vertex   3.274304e+001 -3.778748e+001 2.500000e+002
    endloop
  endfacet
  facet normal 5.406408e-001 -8.412535e-001 0.000000e+000
    outer loop
      vertex   3.274304e+001 -3.778748e+001 2.500000e+002
      vertex   3.274304e+001 -3.778748e+001 5.000000e+002
      vertex   2.077075e+001 -4.548160e+001 2.500000e+002
    endloop
  endfacet
  facet normal 2.817326e-001 -9.594930e-001 0.000000e+000
    outer loop
      vertex   2.077075e+001 -4.548160e+001 0.000000e+000
      vertex   2.077075e+001 -4.548160e+001 2.500000e+002
      vertex   7.115742e+000 -4.949107e+001 0.000000e+000
    endloop
  endfacet
  facet normal 5.406408e-001 -8.412535e-001 0.000000e+000
    outer loop
      vertex   2.077075e+001 -4.548160e+001 0.000000e+000
      vertex   3.274304e+001 -3.778748e+001 2.500000e+002
      vertex   2.077075e+001 -4.548160e+001 2.500000e+002
    endloop
  endfacet
  facet normal 5.406408e-001 -8.412535e-001 0.000000e+000
    outer loop
      vertex   2.077075e+001 -4.548160e+001 0.000000e+000
      vertex   3.274304e+001 -3.778748e+001 0.000000e+000
      vertex   3.274304e+001 -3.778748e+001 2.500000e+002
    endloop
  endfacet
  facet normal 7.557496e-001 -6.548607e-001 0.000000e+000
    outer loop
      vertex   3.274304e+001 -3.778748e+001 2.500000e+002
      vertex   3.274304e+001 -3.778748e+001 0.000000e+000
      vertex   4.206268e+001 -2.703204e+001 2.500000e+002
    endloop
  endfacet
  facet normal 7.557496e-001 -6.548607e-001 0.000000e+000
    outer loop
      vertex   4.206268e+001 -2.703204e+001 2.500000e+002
      vertex   3.274304e+001 -3.778748e+001 0.000000e+000
      vertex   4.206268e+001 -2.703204e+001 0.000000e+000
    endloop
  endfacet
  facet normal 9.096320e-001 -4.154150e-001 0.000000e+000
    outer loop
      vertex   4.797465e+001 -1.408663e+001 2.500000e+002
      vertex   4.206268e+001 -2.703204e+001 2.500000e+002
      vertex   4.206268e+001 -2.703204e+001 0.000000e+000
    endloop
  endfacet
  facet normal 9.096320e-001 -4.154150e-001 1.404649e-017
    outer loop
      vertex   4.797465e+001 -1.408663e+001 2.500000e+002
      vertex   4.797465e+001 -1.408663e+001 5.000000e+002
      vertex   4.206268e+001 -2.703204e+001 2.500000e+002
    endloop
  endfacet
  facet normal 9.898214e-001 -1.423148e-001 2.396521e-017
    outer loop
      vertex   4.797465e+001 -1.408663e+001 2.500000e+002
      vertex   5.000000e+001 0.000000e+000 5.000000e+002
      vertex   4.797465e+001 -1.408663e+001 5.000000e+002
    endloop
  endfacet
  facet normal 5.406408e-001 -8.412535e-001 0.000000e+000
    outer loop
      vertex   3.274304e+001 -3.778748e+001 5.000000e+002
      vertex   2.077075e+001 -4.548160e+001 5.000000e+002
      vertex   2.077075e+001 -4.548160e+001 2.500000e+002
    endloop
  endfacet
  facet normal 2.817326e-001 -9.594930e-001 0.000000e+000
    outer loop
      vertex   2.077075e+001 -4.548160e+001 2.500000e+002
      vertex   2.077075e+001 -4.548160e+001 5.000000e+002
      vertex   7.115742e+000 -4.949107e+001 2.500000e+002
    endloop
  endfacet
  facet normal 9.985505e-016 -1.000000e+000 0.000000e+000
    outer loop
      vertex   7.115742e+000 -4.949107e+001 0.000000e+000
      vertex   7.115742e+000 -4.949107e+001 2.500000e+002
      vertex   -7.115742e+000 -4.949107e+001 0.000000e+000
    endloop
  endfacet
  facet normal 2.817326e-001 -9.594930e-001 0.000000e+000
    outer loop
      vertex   7.115742e+000 -4.949107e+001 0.000000e+000
      vertex   2.077075e+001 -4.548160e+001 2.500000e+002
      vertex   7.115742e+000 -4.949107e+001 2.500000e+002
    endloop
  endfacet
  facet normal 2.817326e-001 -9.594930e-001 0.000000e+000
    outer loop
      vertex   2.077075e+001 -4.548160e+001 5.000000e+002
      vertex   7.115742e+000 -4.949107e+001 5.000000e+002
      vertex   7.115742e+000 -4.949107e+001 2.500000e+002
    endloop
  endfacet
  facet normal 9.985505e-016 -1.000000e+000 0.000000e+000
    outer loop
      vertex   7.115742e+000 -4.949107e+001 2.500000e+002
      vertex   7.115742e+000 -4.949107e+001 5.000000e+002
      vertex   -7.115742e+000 -4.949107e+001 2.500000e+002
    endloop
  endfacet
  facet normal -2.817326e-001 -9.594930e-001 0.000000e+000
    outer loop
      vertex   -7.115742e+000 -4.949107e+001 0.000000e+000
      vertex   -7.115742e+000 -4.949107e+001 2.500000e+002
      vertex   -2.077075e+001 -4.548160e+001 0.000000e+000
    endloop
  endfacet
  facet normal 9.985505e-016 -1.000000e+000 0.000000e+000
    outer loop
      vertex   -7.115742e+000 -4.949107e+001 0.000000e+000
      vertex   7.115742e+000 -4.949107e+001 2.500000e+002
      vertex   -7.115742e+000 -4.949107e+001 2.500000e+002
    endloop
  endfacet
  facet normal 9.985505e-016 -1.000000e+000 0.000000e+000
    outer loop
      vertex   7.115742e+000 -4.949107e+001 5.000000e+002
      vertex   -7.115742e+000 -4.949107e+001 5.000000e+002
      vertex   -7.115742e+000 -4.949107e+001 2.500000e+002
    endloop
  endfacet
  facet normal -2.817326e-001 -9.594930e-001 0.000000e+000
    outer loop
      vertex   -7.115742e+000 -4.949107e+001 2.500000e+002
      vertex   -7.115742e+000 -4.949107e+001 5.000000e+002
      vertex   -2.077075e+001 -4.548160e+001 2.500000e+002
    endloop
  endfacet
  facet normal -5.406408e-001 -8.412535e-001 0.000000e+000
    outer loop
      vertex   -2.077075e+001 -4.548160e+001 0.000000e+000
      vertex   -2.077075e+001 -4.548160e+001 2.500000e+002
      vertex   -3.274304e+001 -3.778748e+001 0.000000e+000
    endloop
  endfacet
  facet normal -2.817326e-001 -9.594930e-001 0.000000e+000
    outer loop
      vertex   -2.077075e+001 -4.548160e+001 0.000000e+000
      vertex   -7.115742e+000 -4.949107e+001 2.500000e+002
      vertex   -2.077075e+001 -4.548160e+001 2.500000e+002
    endloop
  endfacet
  facet normal -2.817326e-001 -9.594930e-001 -0.000000e+000
    outer loop
      vertex   -7.115742e+000 -4.949107e+001 5.000000e+002
      vertex   -2.077075e+001 -4.548160e+001 5.000000e+002
      vertex   -2.077075e+001 -4.548160e+001 2.500000e+002
    endloop
  endfacet
  facet normal -5.406408e-001 -8.412535e-001 0.000000e+000
    outer loop
      vertex   -2.077075e+001 -4.548160e+001 2.500000e+002
      vertex   -2.077075e+001 -4.548160e+001 5.000000e+002
      vertex   -3.274304e+001 -3.778748e+001 2.500000e+002
    endloop
  endfacet
  facet normal -7.557496e-001 -6.548607e-001 0.000000e+000
    outer loop
      vertex   -3.274304e+001 -3.778748e+001 0.000000e+000
      vertex   -3.274304e+001 -3.778748e+001 2.500000e+002
      vertex   -4.206268e+001 -2.703204e+001 0.000000e+000
    endloop
  endfacet
  facet normal -5.406408e-001 -8.412535e-001 0.000000e+000
    outer loop
      vertex   -3.274304e+001 -3.778748e+001 0.000000e+000
      vertex   -2.077075e+001 -4.548160e+001 2.500000e+002
      vertex   -3.274304e+001 -3.778748e+001 2.500000e+002
    endloop
  endfacet
  facet normal -5.406408e-001 -8.412535e-001 -0.000000e+000
    outer loop
      vertex   -2.077075e+001 -4.548160e+001 5.000000e+002
      vertex   -3.274304e+001 -3.778748e+001 5.000000e+002
      vertex   -3.274304e+001 -3.778748e+001 2.500000e+002
    endloop
  endfacet
  facet normal -7.557496e-001 -6.548607e-001 0.000000e+000
    outer loop
      vertex   -3.274304e+001 -3.778748e+001 2.500000e+002
      vertex   -3.274304e+001 -3.778748e+001 5.000000e+002
      vertex   -4.206268e+001 -2.703204e+001 2.500000e+002
    endloop
  endfacet
  facet normal -9.096320e-001 -4.154150e-001 0.000000e+000
    outer loop
      vertex   -4.206268e+001 -2.703204e+001 0.000000e+000
      vertex   -4.206268e+001 -2.703204e+001 2.500000e+002
      vertex   -4.797465e+001 -1.408663e+001 0.000000e+000
    endloop
  endfacet
  facet normal -7.557496e-001 -6.548607e-001 0.000000e+000
    outer loop
      vertex   -4.206268e+001 -2.703204e+001 0.000000e+000
      vertex   -3.274304e+001 -3.778748e+001 2.500000e+002
      vertex   -4.206268e+001 -2.703204e+001 2.500000e+002
    endloop
  endfacet
  facet normal -7.557496e-001 -6.548607e-001 -0.000000e+000
    outer loop
      vertex   -3.274304e+001 -3.778748e+001 5.000000e+002
      vertex   -4.206268e+001 -2.703204e+001 5.000000e+002
      vertex   -4.206268e+001 -2.703204e+001 2.500000e+002
    endloop
  endfacet
  facet normal -9.096320e-001 -4.154150e-001 0.000000e+000
    outer loop
      vertex   -4.206268e+001 -2.703204e+001 2.500000e+002
      vertex   -4.206268e+001 -2.703204e+001 5.000000e+002
      vertex   -4.797465e+001 -1.408663e+001 2.500000e+002
    endloop
  endfacet
  facet normal -9.898214e-001 -1.423148e-001 0.000000e+000
    outer loop
      vertex   -4.797465e+001 -1.408663e+001 0.000000e+000
      vertex   -4.797465e+001 -1.408663e+001 2.500000e+002
      vertex   -5.000000e+001 0.000000e+000 0.000000e+000
    endloop
  endfacet
  facet normal -9.096320e-001 -4.154150e-001 0.000000e+000
    outer loop
      vertex   -4.797465e+001 -1.408663e+001 0.000000e+000
      vertex   -4.206268e+001 -2.703204e+001 2.500000e+002
      vertex   -4.797465e+001 -1.408663e+001 2.500000e+002
    endloop
  endfacet
  facet normal -9.096320e-001 -4.154150e-001 -0.000000e+000
    outer loop
      vertex   -4.206268e+001 -2.703204e+001 5.000000e+002
      vertex   -4.797465e+001 -1.408663e+001 5.000000e+002
      vertex   -4.797465e+001 -1.408663e+001 2.500000e+002
    endloop
  endfacet
  facet normal -9.898214e-001 -1.423148e-001 0.000000e+000
    outer loop
      vertex   -4.797465e+001 -1.408663e+001 2.500000e+002
      vertex   -4.797465e+001 -1.408663e+001 5.000000e+002
      vertex   -5.000000e+001 0.000000e+000 5.000000e+002
    endloop
  endfacet
  facet normal -9.898214e-001 -1.423148e-001 0.000000e+000
    outer loop
      vertex   -5.000000e+001 0.000000e+000 0.000000e+000
      vertex   -4.797465e+001 -1.408663e+001 2.500000e+002
      vertex   -5.000000e+001 0.000000e+000 5.000000e+002
    endloop
  endfacet
  facet normal 0.000000e+000 -0.000000e+000 -1.000000e+000
    outer loop
      vertex   4.500000e+001 0.000000e+000 0.000000e+000
      vertex   5.000000e+001 0.000000e+000 0.000000e+000
      vertex   4.317718e+001 -1.267797e+001 0.000000e+000
    endloop
  endfacet
  facet normal 0.000000e+000 -0.000000e+000 -1.000000e+000
    outer loop
      vertex   4.317718e+001 -1.267797e+001 0.000000e+000
      vertex   5.000000e+001 0.000000e+000 0.000000e+000
      vertex   4.797465e+001 -1.408663e+001 0.000000e+000
    endloop
  endfacet
  facet normal 0.000000e+000 -0.000000e+000 -1.000000e+000
    outer loop
      vertex   3.785641e+001 -2.432884e+001 0.000000e+000
      vertex   4.797465e+001 -1.408663e+001 0.000000e+000
      vertex   4.206268e+001 -2.703204e+001 0.000000e+000
    endloop
  endfacet
  facet normal 0.000000e+000 -0.000000e+000 -1.000000e+000
    outer loop
      vertex   2.946873e+001 -3.400873e+001 0.000000e+000
      vertex   4.206268e+001 -2.703204e+001 0.000000e+000
      vertex   3.274304e+001 -3.778748e+001 0.000000e+000
    endloop
  endfacet
  facet normal 0.000000e+000 -0.000000e+000 -1.000000e+000
    outer loop
      vertex   1.869368e+001 -4.093344e+001 0.000000e+000
      vertex   3.274304e+001 -3.778748e+001 0.000000e+000
      vertex   2.077075e+001 -4.548160e+001 0.000000e+000
    endloop
  endfacet
  facet normal 0.000000e+000 -0.000000e+000 -1.000000e+000
    outer loop
      vertex   6.404168e+000 -4.454196e+001 0.000000e+000
      vertex   2.077075e+001 -4.548160e+001 0.000000e+000
      vertex   7.115742e+000 -4.949107e+001 0.000000e+000
    endloop
  endfacet
  facet normal 0.000000e+000 0.000000e+000 -1.000000e+000
    outer loop
      vertex   -7.115742e+000 -4.949107e+001 0.000000e+000
      vertex   6.404168e+000 -4.454196e+001 0.000000e+000
      vertex   7.115742e+000 -4.949107e+001 0.000000e+000
    endloop
  endfacet
  facet normal 0.000000e+000 0.000000e+000 -1.000000e+000
    outer loop
      vertex   -7.115742e+000 -4.949107e+001 0.000000e+000
      vertex   -6.404168e+000 -4.454196e+001 0.000000e+000
      vertex   6.404168e+000 -4.454196e+001 0.000000e+000
    endloop
  endfacet
  facet normal 0.000000e+000 0.000000e+000 -1.000000e+000
    outer loop
      vertex   -7.115742e+000 -4.949107e+001 0.000000e+000
      vertex   -2.077075e+001 -4.548160e+001 0.000000e+000
      vertex   -6.404168e+000 -4.454196e+001 0.000000e+000
    endloop
  endfacet
  facet normal -0.000000e+000 0.000000e+000 -1.000000e+000
    outer loop
      vertex   -6.404168e+000 -4.454196e+001 0.000000e+000
      vertex   -2.077075e+001 -4.548160e+001 0.000000e+000
      vertex   -1.869368e+001 -4.093344e+001 0.000000e+000
    endloop
  endfacet
  facet normal -0.000000e+000 0.000000e+000 -1.000000e+000
    outer loop
      vertex   -1.869368e+001 -4.093344e+001 0.000000e+000
      vertex   -2.077075e+001 -4.548160e+001 0.000000e+000
      vertex   -3.274304e+001 -3.778748e+001 0.000000e+000
    endloop
  endfacet
  facet normal -0.000000e+000 0.000000e+000 -1.000000e+000
    outer loop
      vertex   -2.946873e+001 -3.400873e+001 0.000000e+000
      vertex   -3.274304e+001 -3.778748e+001 0.000000e+000
      vertex   -4.206268e+001 -2.703204e+001 0.000000e+000
    endloop
  endfacet
  facet normal -0.000000e+000 0.000000e+000 -1.000000e+000
    outer loop
      vertex   -3.785641e+001 -2.432884e+001 0.000000e+000
      vertex   -4.206268e+001 -2.703204e+001 0.000000e+000
      vertex   -4.797465e+001 -1.408663e+001 0.000000e+000
    endloop
  endfacet
  facet normal -0.000000e+000 0.000000e+000 -1.000000e+000
    outer loop
      vertex   -4.317718e+001 -1.267797e+001 0.000000e+000
      vertex   -4.797465e+001 -1.408663e+001 0.000000e+000
      vertex   -5.000000e+001 0.000000e+000 0.000000e+000
    endloop
  endfacet
  facet normal -0.000000e+000 -0.000000e+000 -1.000000e+000
    outer loop
      vertex   -4.500000e+001 0.000000e+000 0.000000e+000
      vertex   -4.317718e+001 -1.267797e+001 0.000000e+000
      vertex   -5.000000e+001 0.000000e+000 0.000000e+000
    endloop
  endfacet
  facet normal 0.000000e+000 -0.000000e+000 -1.000000e+000
    outer loop
      vertex   4.317718e+001 -1.267797e+001 0.000000e+000
      vertex   4.797465e+001 -1.408663e+001 0.000000e+000
      vertex   3.785641e+001 -2.432884e+001 0.000000e+000
    endloop
  endfacet
  facet normal 0.000000e+000 -0.000000e+000 -1.000000e+000
    outer loop
      vertex   3.785641e+001 -2.432884e+001 0.000000e+000
      vertex   4.206268e+001 -2.703204e+001 0.000000e+000
      vertex   2.946873e+001 -3.400873e+001 0.000000e+000
    endloop
  endfacet
  facet normal 0.000000e+000 -0.000000e+000 -1.000000e+000
    outer loop
      vertex   2.946873e+001 -3.400873e+001 0.000000e+000
      vertex   3.274304e+001 -3.778748e+001 0.000000e+000
      vertex   1.869368e+001 -4.093344e+001 0.000000e+000
    endloop
  endfacet
  facet normal -0.000000e+000 -0.000000e+000 -1.000000e+000
    outer loop
      vertex   1.869368e+001 -4.093344e+001 0.000000e+000
      vertex   2.077075e+001 -4.548160e+001 0.000000e+000
      vertex   6.404168e+000 -4.454196e+001 0.000000e+000
    endloop
  endfacet
  facet normal 0.000000e+000 0.000000e+000 -1.000000e+000
    outer loop
      vertex   -1.869368e+001 -4.093344e+001 0.000000e+000
      vertex   -3.274304e+001 -3.778748e+001 0.000000e+000
      vertex   -2.946873e+001 -3.400873e+001 0.000000e+000
    endloop
  endfacet
  facet normal 0.000000e+000 0.000000e+000 -1.000000e+000
    outer loop
      vertex   -2.946873e+001 -3.400873e+001 0.000000e+000
      vertex   -4.206268e+001 -2.703204e+001 0.000000e+000
      vertex   -3.785641e+001 -2.432884e+001 0.000000e+000
    endloop
  endfacet
  facet normal 0.000000e+000 0.000000e+000 -1.000000e+000
    outer loop
      vertex   -3.785641e+001 -2.432884e+001 0.000000e+000
      vertex   -4.797465e+001 -1.408663e+001 0.000000e+000
      vertex   -4.317718e+001 -1.267797e+001 0.000000e+000
    endloop
  endfacet
  facet normal 0.000000e+000 0.000000e+000 1.000000e+000
    outer loop
      vertex   -4.500000e+001 0.000000e+000 5.000000e+002
      vertex   -5.000000e+001 0.000000e+000 5.000000e+002
      vertex   -4.317718e+001 -1.267797e+001 5.000000e+002
    endloop
  endfacet
  facet normal 0.000000e+000 0.000000e+000 1.000000e+000
    outer loop
      vertex   -4.317718e+001 -1.267797e+001 5.000000e+002
      vertex   -5.000000e+001 0.000000e+000 5.000000e+002
      vertex   -4.797465e+001 -1.408663e+001 5.000000e+002
    endloop
  endfacet
  facet normal 0.000000e+000 0.000000e+000 1.000000e+000
    outer loop
      vertex   -3.785641e+001 -2.432884e+001 5.000000e+002
      vertex   -4.797465e+001 -1.408663e+001 5.000000e+002
      vertex   -4.206268e+001 -2.703204e+001 5.000000e+002
    endloop
  endfacet
  facet normal 0.000000e+000 0.000000e+000 1.000000e+000
    outer loop
      vertex   -2.946873e+001 -3.400873e+001 5.000000e+002
      vertex   -4.206268e+001 -2.703204e+001 5.000000e+002
      vertex   -3.274304e+001 -3.778748e+001 5.000000e+002
    endloop
  endfacet
  facet normal 0.000000e+000 0.000000e+000 1.000000e+000
    outer loop
      vertex   -1.869368e+001 -4.093344e+001 5.000000e+002
      vertex   -3.274304e+001 -3.778748e+001 5.000000e+002
      vertex   -2.077075e+001 -4.548160e+001 5.000000e+002
    endloop
  endfacet
  facet normal 0.000000e+000 0.000000e+000 1.000000e+000
    outer loop
      vertex   -6.404168e+000 -4.454196e+001 5.000000e+002
      vertex   -2.077075e+001 -4.548160e+001 5.000000e+002
      vertex   -7.115742e+000 -4.949107e+001 5.000000e+002
    endloop
  endfacet
  facet normal 0.000000e+000 0.000000e+000 1.000000e+000
    outer loop
      vertex   7.115742e+000 -4.949107e+001 5.000000e+002
      vertex   -6.404168e+000 -4.454196e+001 5.000000e+002
      vertex   -7.115742e+000 -4.949107e+001 5.000000e+002
    endloop
  endfacet
  facet normal 0.000000e+000 0.000000e+000 1.000000e+000
    outer loop
      vertex   7.115742e+000 -4.949107e+001 5.000000e+002
      vertex   6.404168e+000 -4.454196e+001 5.000000e+002
      vertex   -6.404168e+000 -4.454196e+001 5.000000e+002
    endloop
  endfacet
  facet normal 0.000000e+000 -0.000000e+000 1.000000e+000
    outer loop
      vertex   7.115742e+000 -4.949107e+001 5.000000e+002
      vertex   2.077075e+001 -4.548160e+001 5.000000e+002
      vertex   6.404168e+000 -4.454196e+001 5.000000e+002
    endloop
  endfacet
  facet normal -0.000000e+000 -0.000000e+000 1.000000e+000
    outer loop
      vertex   6.404168e+000 -4.454196e+001 5.000000e+002
      vertex   2.077075e+001 -4.548160e+001 5.000000e+002
      vertex   1.869368e+001 -4.093344e+001 5.000000e+002
    endloop
  endfacet
  facet normal -0.000000e+000 0.000000e+000 1.000000e+000
    outer loop
      vertex   1.869368e+001 -4.093344e+001 5.000000e+002
      vertex   2.077075e+001 -4.548160e+001 5.000000e+002
      vertex   3.274304e+001 -3.778748e+001 5.000000e+002
    endloop
  endfacet
  facet normal -0.000000e+000 0.000000e+000 1.000000e+000
    outer loop
      vertex   2.946873e+001 -3.400873e+001 5.000000e+002
      vertex   3.274304e+001 -3.778748e+001 5.000000e+002
      vertex   4.206268e+001 -2.703204e+001 5.000000e+002
    endloop
  endfacet
  facet normal -0.000000e+000 0.000000e+000 1.000000e+000
    outer loop
      vertex   3.785641e+001 -2.432884e+001 5.000000e+002
      vertex   4.206268e+001 -2.703204e+001 5.000000e+002
      vertex   4.797465e+001 -1.408663e+001 5.000000e+002
    endloop
  endfacet
  facet normal -0.000000e+000 0.000000e+000 1.000000e+000
    outer loop
      vertex   4.317718e+001 -1.267797e+001 5.000000e+002
      vertex   4.797465e+001 -1.408663e+001 5.000000e+002
      vertex   5.000000e+001 0.000000e+000 5.000000e+002
    endloop
  endfacet
  facet normal -0.000000e+000 0.000000e+000 1.000000e+000
    outer loop
      vertex   4.500000e+001 0.000000e+000 5.000000e+002
      vertex   4.317718e+001 -1.267797e+001 5.000000e+002
      vertex   5.000000e+001 0.000000e+000 5.000000e+002
    endloop
  endfacet
  facet normal 0.000000e+000 0.000000e+000 1.000000e+000
    outer loop
      vertex   -4.317718e+001 -1.267797e+001 5.000000e+002
      vertex   -4.797465e+001 -1.408663e+001 5.000000e+002
      vertex   -3.785641e+001 -2.432884e+001 5.000000e+002
    endloop
  endfacet
  facet normal 0.000000e+000 0.000000e+000 1.000000e+000
    outer loop
      vertex   -3.785641e+001 -2.432884e+001 5.000000e+002
      vertex   -4.206268e+001 -2.703204e+001 5.000000e+002
      vertex   -2.946873e+001 -3.400873e+001 5.000000e+002
    endloop
  endfacet
  facet normal 0.000000e+000 0.000000e+000 1.000000e+000
    outer loop
      vertex   -2.946873e+001 -3.400873e+001 5.000000e+002
      vertex   -3.274304e+001 -3.778748e+001 5.000000e+002
      vertex   -1.869368e+001 -4.093344e+001 5.000000e+002
    endloop
  endfacet
  facet normal -0.000000e+000 0.000000e+000 1.000000e+000
    outer loop
      vertex   -1.869368e+001 -4.093344e+001 5.000000e+002
      vertex   -2.077075e+001 -4.548160e+001 5.000000e+002
      vertex   -6.404168e+000 -4.454196e+001 5.000000e+002
    endloop
  endfacet
  facet normal 0.000000e+000 -0.000000e+000 1.000000e+000
    outer loop
      vertex   1.869368e+001 -4.093344e+001 5.000000e+002
      vertex   3.274304e+001 -3.778748e+001 5.000000e+002
      vertex   2.946873e+001 -3.400873e+001 5.000000e+002
    endloop
  endfacet
  facet normal 0.000000e+000 -0.000000e+000 1.000000e+000
    outer loop
      vertex   2.946873e+001 -3.400873e+001 5.000000e+002
      vertex   4.206268e+001 -2.703204e+001 5.000000e+002
      vertex   3.785641e+001 -2.432884e+001 5.000000e+002
    endloop
  endfacet
  facet normal 0.000000e+000 -0.000000e+000 1.000000e+000
    outer loop
      vertex   3.785641e+001 -2.432884e+001 5.000000e+002
      vertex   4.797465e+001 -1.408663e+001 5.000000e+002
      vertex   4.317718e+001 -1.267797e+001 5.000000e+002
    endloop
  endfacet
endsolid
